<?xml version="1.0" standalone="no"?>
<!DOCTYPE svg PUBLIC "-//W3C//DTD SVG 20010904//EN"
 "http://www.w3.org/TR/2001/REC-SVG-20010904/DTD/svg10.dtd">
<svg version="1.0" xmlns="http://www.w3.org/2000/svg"
 width="321.000000pt" height="488.000000pt" viewBox="0 0 321.000000 488.000000"
 preserveAspectRatio="xMidYMid meet">

<g transform="translate(0.000000,488.000000) scale(0.100000,-0.100000)"
fill="#000000" stroke="none">
<path d="M0 2440 l0 -2440 1565 0 1566 0 -16 30 c-8 16 -15 33 -15 37 1 4 10
-9 21 -29 17 -33 24 -38 54 -38 l35 0 0 2440 0 2440 -1605 0 -1605 0 0 -2440z
m345 1988 c5 -22 10 -27 16 -17 17 28 40 -96 29 -156 -6 -27 2 -27 15 0 13 27
14 28 10 5 -2 -14 -7 -34 -11 -44 -5 -13 -4 -17 3 -13 6 4 16 28 22 53 7 25
19 54 28 62 15 15 16 10 9 -68 -4 -46 -11 -87 -16 -90 -14 -9 -24 -60 -11 -60
6 0 11 -7 11 -16 0 -29 -25 -8 -31 27 -7 39 -8 38 -15 -16 -3 -22 -15 -53 -26
-70 -19 -29 -21 -16 -3 28 6 13 3 16 -9 11 -10 -4 -16 -1 -17 7 0 8 -4 4 -9
-8 -5 -13 -14 -23 -21 -23 -6 0 -9 6 -6 14 8 19 -3 28 -19 15 -15 -12 -35 -3
-33 14 1 7 -1 20 -5 29 -7 16 -10 16 -29 3 -26 -18 -43 -20 -29 -2 6 7 9 29 8
49 -2 25 2 39 11 43 12 4 14 19 8 78 -4 39 -13 79 -21 87 -8 9 -10 21 -5 29
10 15 3 51 -10 51 -5 0 -9 5 -9 10 0 23 40 -17 64 -65 27 -52 35 -115 15 -115
-6 0 -9 -7 -5 -15 3 -8 1 -26 -4 -40 -6 -16 -6 -25 0 -25 6 0 10 7 10 16 0 8
4 13 9 10 10 -6 21 50 21 107 0 24 4 36 10 32 8 -5 9 10 4 47 -6 50 -5 52 10
33 15 -19 16 -19 6 9 -9 25 -9 27 4 17 8 -7 18 -26 21 -43z m-217 -29 c-3 -8
-7 -3 -11 10 -4 17 -3 21 5 13 5 -5 8 -16 6 -23z m339 -51 c-3 -8 -6 -5 -6 6
-1 11 2 17 5 13 3 -3 4 -12 1 -19z m-277 -83 c-7 -25 -17 -45 -21 -45 -15 0
-10 48 6 64 8 8 15 20 15 27 0 7 3 9 6 6 4 -4 1 -27 -6 -52z m-44 -12 c-2 -27
-5 -50 -6 -53 -1 -3 -2 -9 -1 -13 1 -5 -3 -6 -8 -3 -14 9 -1 116 14 116 4 0 4
-21 1 -47z m64 -33 c0 -5 -2 -10 -4 -10 -3 0 -8 5 -11 10 -3 6 -1 10 4 10 6 0
11 -4 11 -10z m347 -47 c-3 -10 -5 -4 -5 12 0 17 2 24 5 18 2 -7 2 -21 0 -30z
m239 -50 c4 -19 4 -67 0 -106 -4 -40 -8 -91 -10 -114 -2 -24 -14 -58 -27 -77
-29 -42 -35 -41 -13 2 8 18 13 38 11 45 -3 7 -6 4 -6 -6 -1 -10 -5 -15 -11
-12 -5 3 -10 -3 -10 -14 0 -12 -4 -21 -10 -21 -5 0 -10 -7 -10 -15 0 -8 -6
-12 -14 -9 -8 3 -12 13 -9 25 3 10 8 17 12 15 4 -3 7 11 7 30 0 18 -3 29 -7
23 -9 -14 -15 -3 -23 44 -4 20 -11 37 -16 37 -5 0 -6 9 -1 22 6 16 3 30 -7 46
-8 12 -12 25 -8 29 3 4 -1 14 -10 24 -15 16 -14 17 5 12 12 -3 21 -10 21 -15
0 -5 5 -6 10 -3 6 3 10 -2 10 -12 0 -10 8 -29 17 -42 12 -18 13 -22 2 -17 -8
4 -6 1 5 -8 10 -8 16 -19 12 -24 -3 -5 0 -9 7 -9 14 0 11 76 -4 91 -5 5 -1 15
9 23 9 8 12 12 6 9 -8 -4 -11 3 -10 19 1 21 3 23 16 9 8 -8 20 -38 27 -67 l12
-52 -4 82 c-2 46 -7 88 -10 95 -4 7 1 4 9 -6 9 -11 19 -35 22 -53z m-277 -36
c-7 -29 -14 -46 -17 -38 -4 11 -6 11 -13 0 -7 -11 -9 -9 -9 6 0 17 -2 17 -10
5 -17 -27 -11 5 10 46 17 35 19 36 21 14 1 -21 2 -20 11 10 16 53 22 17 7 -43z
m35 47 c3 -8 2 -12 -4 -9 -6 3 -10 10 -10 16 0 14 7 11 14 -7z m288 -23 c7 10
8 6 4 -13 -4 -16 -2 -28 4 -28 5 0 10 -12 10 -26 0 -14 4 -23 9 -19 5 3 13 0
17 -6 5 -8 3 -9 -6 -4 -9 6 -10 0 -5 -25 5 -23 4 -30 -4 -26 -6 4 -11 16 -11
26 0 10 -4 21 -9 24 -5 3 -7 15 -4 26 3 12 -1 22 -11 26 -9 4 -16 17 -15 33 0
14 3 20 6 12 5 -11 7 -11 15 0z m-292 -43 c0 -25 -4 -38 -9 -32 -8 8 -4 74 5
74 2 0 4 -19 4 -42z m285 -18 c3 -5 1 -10 -4 -10 -6 0 -11 5 -11 10 0 6 2 10
4 10 3 0 8 -4 11 -10z m-278 -62 c-3 -7 -5 -2 -5 12 0 14 2 19 5 13 2 -7 2
-19 0 -25z m266 -3 c-3 -9 -8 -14 -10 -11 -3 3 -2 9 2 15 9 16 15 13 8 -4z
m-353 -57 c0 -5 -6 -8 -14 -8 -9 0 -12 7 -9 21 4 16 8 17 14 7 5 -7 9 -16 9
-20z m196 -17 c0 -11 -4 -17 -8 -15 -4 3 -8 12 -8 20 0 8 4 14 8 14 4 0 8 -9
8 -19z m-186 -27 c0 -8 -4 -12 -10 -9 -5 3 -10 13 -10 21 0 8 5 12 10 9 6 -3
10 -13 10 -21z m1946 -483 c10 -23 25 -41 32 -41 6 0 12 -9 12 -20 0 -11 5
-20 11 -20 5 0 8 -4 4 -10 -5 -9 12 -49 26 -60 14 -11 127 -318 140 -380 5
-25 14 -108 19 -185 8 -124 20 -189 50 -260 24 -58 32 -101 37 -206 7 -136 -6
-205 -62 -334 -7 -16 -19 -45 -27 -62 -7 -18 -16 -33 -20 -33 -5 0 -8 -7 -8
-15 0 -9 -7 -18 -15 -21 -8 -4 -15 -13 -15 -21 0 -9 -6 -13 -14 -10 -10 4 -13
1 -10 -7 9 -23 -39 -65 -69 -62 -22 3 -27 -1 -27 -18 0 -17 -2 -18 -10 -6 -7
11 -27 15 -75 14 -63 0 -85 8 -45 19 12 3 19 12 18 24 -2 10 2 18 7 18 6 0 9
-6 9 -12 -3 -21 17 -15 23 7 3 11 9 20 13 20 12 0 20 28 13 48 -6 14 -8 13
-13 -8 -4 -16 -14 -26 -28 -28 -21 -3 -32 13 -13 20 5 2 5 14 -1 28 -7 20 -11
22 -19 10 -8 -11 -12 -12 -16 -2 -15 36 -32 -13 -35 -101 -1 -41 -13 -56 -31
-37 -9 9 -8 14 4 23 20 15 13 37 -11 37 -19 0 -34 -25 -24 -41 3 -5 2 -15 -3
-21 -5 -9 -10 -1 -15 22 l-6 35 1 -34 c2 -31 4 -34 39 -36 20 -1 43 -8 51 -16
12 -13 8 -15 -27 -16 -23 0 -47 4 -53 9 -9 7 -13 7 -13 -1 0 -6 5 -11 11 -11
5 0 7 -4 4 -10 -3 -5 -20 -10 -36 -10 -17 0 -28 -4 -24 -9 9 -16 -37 -42 -52
-30 -10 9 -15 5 -22 -13 -5 -14 -18 -24 -31 -25 -12 -1 -30 -8 -39 -16 -9 -8
-31 -18 -49 -22 -18 -4 -35 -12 -38 -19 -3 -7 -24 -13 -47 -14 -25 -1 -47 -8
-54 -18 -20 -27 -173 -26 -173 1 0 7 -11 16 -25 19 -15 4 -30 18 -37 34 l-11
27 -7 -25 -6 -25 -8 30 c-5 17 -10 40 -11 53 -2 13 -11 29 -19 35 -21 16 -34
66 -25 97 4 14 7 39 8 56 1 23 7 33 22 37 12 3 18 10 14 16 -3 6 2 12 12 12
17 1 17 2 0 6 -22 6 -12 23 14 23 11 0 22 7 25 14 3 8 36 27 72 41 37 14 112
52 167 84 97 56 100 57 103 34 2 -13 8 -21 13 -17 6 3 24 -9 40 -27 19 -21 40
-34 57 -35 19 0 28 -7 32 -25 4 -15 12 -23 23 -21 14 2 17 -6 17 -48 0 -53 15
-68 26 -25 3 14 10 22 15 19 16 -9 10 -39 -11 -54 -11 -8 -20 -25 -20 -38 0
-21 2 -21 35 12 19 20 35 44 35 54 0 26 11 34 27 21 9 -8 10 -15 3 -24 -14
-17 -2 -45 19 -45 21 0 45 36 30 46 -6 3 -8 12 -5 19 5 14 -24 45 -42 45 -7 0
-12 5 -12 12 0 9 -3 9 -12 0 -19 -19 -26 -14 -20 15 4 21 2 25 -11 20 -10 -4
-20 0 -25 9 -8 14 -10 14 -21 0 -23 -28 -29 -17 -24 42 5 55 3 61 -23 88 -62
62 -188 76 -178 19 3 -19 -2 -28 -23 -39 -29 -14 -119 -44 -162 -52 -36 -7
-243 -21 -261 -18 -8 1 -28 5 -43 9 l-28 6 30 27 c31 29 61 81 61 107 0 9 9
15 23 15 23 0 107 36 107 46 0 8 -93 -7 -106 -17 -6 -5 -14 -6 -17 -2 -4 3 -7
0 -7 -7 0 -9 -5 -7 -15 6 -8 10 -15 15 -15 11 0 -5 -19 8 -42 27 -49 42 -68
44 -125 11 -40 -22 -43 -23 -43 -5 0 10 13 31 28 47 15 15 39 46 52 68 13 22
44 67 70 100 43 57 100 160 100 182 0 6 7 13 15 17 8 3 20 17 25 31 10 26 30
26 30 0 0 -8 6 -12 14 -9 8 3 17 1 21 -5 3 -6 17 -11 31 -11 15 0 24 -6 24
-15 0 -8 6 -15 14 -15 16 0 31 -34 21 -50 -10 -17 125 -148 171 -166 23 -9 47
-13 53 -10 5 4 12 2 15 -3 4 -6 18 -6 36 -1 16 5 32 5 35 0 4 -6 60 -7 75 0 3
1 8 2 13 1 4 0 7 8 7 18 0 16 5 19 25 15 15 -3 25 0 25 7 0 8 4 8 15 -1 20
-17 45 -5 45 22 0 17 3 19 12 10 14 -14 42 -16 33 -2 -3 6 1 10 9 10 10 0 13
6 9 16 -5 13 -3 15 13 6 24 -12 48 3 59 36 5 18 12 22 27 19 14 -4 18 -2 14 9
-3 8 1 14 9 14 8 0 15 6 15 14 0 7 10 16 22 19 12 4 19 9 15 13 -3 4 -2 15 4
25 7 14 6 19 -3 20 -9 0 -9 2 -1 5 26 11 -70 113 -99 106 -5 -1 -8 2 -8 7 0 5
-12 12 -27 16 -16 3 -46 15 -68 25 -40 19 -130 46 -255 76 -80 19 -91 28 -25
20 74 -9 345 -45 385 -51 35 -5 35 -5 10 9 -14 8 -63 24 -110 35 -129 31 -301
69 -340 76 -74 13 -119 28 -124 42 -3 8 -2 12 3 9 4 -3 20 8 36 24 15 16 41
34 59 41 17 7 44 22 61 33 43 30 87 56 108 62 9 4 17 10 17 14 0 5 14 11 30
15 17 4 30 11 30 16 0 5 6 9 13 9 19 0 144 134 190 203 21 32 42 55 46 53 4
-3 16 -23 27 -45z m-1578 -313 c8 -8 15 -8 25 1 21 17 35 -6 41 -62 6 -59 -14
-101 -57 -117 -35 -15 -77 -48 -77 -63 0 -5 11 -7 25 -5 29 6 30 4 12 -14 -7
-7 -23 -33 -34 -57 -22 -43 -22 -44 -29 -17 -14 55 13 220 50 309 17 39 25 44
44 25z m1476 -490 c56 -29 73 -47 55 -59 -137 -91 -242 -129 -351 -129 -81 0
-102 8 -88 30 6 8 10 52 10 97 0 95 -2 93 115 102 83 7 201 -11 259 -41z
m-1324 -31 c0 -13 4 -27 9 -32 5 -6 5 -19 1 -30 -8 -18 -9 -18 -9 5 -1 16 -4
21 -9 13 -5 -7 -8 4 -7 27 0 22 3 40 8 40 4 0 7 -10 7 -23z m27 -9 c-3 -7 -5
-2 -5 12 0 14 2 19 5 13 2 -7 2 -19 0 -25z m-73 -33 c3 -8 1 -15 -4 -15 -6 0
-10 7 -10 15 0 8 2 15 4 15 2 0 6 -7 10 -15z m-149 -54 c-3 -5 -1 -12 4 -16 6
-3 8 -12 4 -20 -3 -8 0 -15 7 -15 6 0 8 -5 4 -12 -5 -7 -2 -9 8 -6 13 5 14 0
7 -35 -7 -40 -5 -127 6 -262 3 -45 1 -63 -11 -76 -9 -10 -13 -23 -9 -29 5 -9
1 -10 -16 -5 -18 5 -20 4 -9 -4 10 -7 12 -13 4 -21 -14 -14 -53 106 -61 191
-8 95 15 297 36 309 21 12 34 13 26 1z m182 -13 c-3 -8 -6 -5 -6 6 -1 11 2 17
5 13 3 -3 4 -12 1 -19z m220 -233 c7 -20 -2 -29 -21 -22 -9 4 -13 13 -10 22 8
19 23 19 31 0z m1993 -55 c0 -50 -3 -61 -21 -70 -11 -7 -22 -10 -24 -8 -3 4
37 138 41 138 2 0 4 -27 4 -60z m-2370 -206 c0 -3 -7 -12 -15 -20 -16 -17 -18
-14 -9 10 6 15 24 23 24 10z m13 -96 c9 -31 2 -33 -11 -3 -6 14 -8 25 -3 25 5
0 11 -10 14 -22z m1347 -18 c0 -5 -4 -10 -10 -10 -5 0 -10 5 -10 10 0 6 5 10
10 10 6 0 10 -4 10 -10z m-1310 -65 c0 -5 -5 -3 -10 5 -5 8 -10 20 -10 25 0 6
5 3 10 -5 5 -8 10 -19 10 -25z m1470 -45 c0 -5 -4 -10 -10 -10 -5 0 -10 5 -10
10 0 6 5 10 10 10 6 0 10 -4 10 -10z m-1421 -45 c0 -5 -4 -3 -9 5 -5 8 -9 22
-9 30 0 16 17 -16 18 -35z m49 -80 c-3 -3 -9 2 -12 12 -6 14 -5 15 5 6 7 -7
10 -15 7 -18z m2082 -1480 c0 -4 -9 4 -20 18 -11 14 -20 28 -20 32 0 4 9 -4
20 -18 11 -14 20 -28 20 -32z"/>
<path d="M735 3930 c4 -14 3 -25 -5 -30 -7 -4 -8 -10 -3 -13 6 -4 15 4 20 16
8 17 7 26 -4 36 -13 12 -14 11 -8 -9z"/>
</g>
</svg>
