<?xml version="1.0" standalone="no"?>
<!DOCTYPE svg PUBLIC "-//W3C//DTD SVG 20010904//EN"
 "http://www.w3.org/TR/2001/REC-SVG-20010904/DTD/svg10.dtd">
<svg version="1.0" xmlns="http://www.w3.org/2000/svg"
 width="323.000000pt" height="850.000000pt" viewBox="0 0 323.000000 850.000000"
 preserveAspectRatio="xMidYMid meet">

<g transform="translate(0.000000,850.000000) scale(0.100000,-0.100000)"
fill="#000000" stroke="none">
<path d="M1 6543 c1 -1077 3 -1951 5 -1943 5 19 44 45 44 30 0 -5 -4 -10 -10
-10 -5 0 -10 -8 -10 -17 0 -9 -7 -24 -15 -33 -13 -15 -15 -156 -13 -1176 l3
-1159 44 75 c65 109 125 234 156 325 29 85 41 110 30 60 -18 -79 -72 -220
-115 -305 -16 -30 -31 -65 -35 -77 -3 -13 -11 -23 -16 -23 -6 0 -7 -5 -4 -10
4 -6 -10 -27 -29 -48 l-36 -36 0 -314 c0 -271 2 -316 16 -337 9 -14 23 -25 30
-25 20 0 17 9 -8 32 l-23 19 28 -4 c15 -2 27 -1 27 4 0 4 14 3 32 -2 21 -5 36
-5 42 1 7 7 3 10 -12 10 -32 0 -27 15 11 34 25 12 27 16 11 16 -27 0 -97 34
-88 43 4 3 1 14 -7 23 -12 15 -12 17 1 12 8 -2 28 8 45 23 25 24 35 28 68 22
30 -4 41 -2 52 13 8 11 15 14 15 8 0 -7 18 -12 41 -12 28 -1 47 -7 61 -21 18
-20 38 -25 85 -22 12 1 28 -7 37 -21 9 -13 33 -28 54 -34 28 -8 38 -17 40 -35
2 -13 13 -35 25 -48 l22 -23 -35 6 c-19 3 -28 3 -20 -1 8 -3 18 -11 22 -16 4
-7 18 -6 40 3 139 54 238 133 238 190 0 20 4 29 11 24 7 -4 10 -27 7 -61 -4
-49 -10 -59 -54 -104 -61 -62 -206 -136 -346 -175 -54 -14 -95 -31 -92 -35 3
-5 12 -9 20 -9 8 0 14 -4 14 -10 0 -5 7 -10 15 -10 18 0 19 -12 3 -28 -9 -9
-7 -13 5 -18 9 -3 14 -10 11 -15 -3 -5 10 -10 28 -11 23 -1 16 -3 -22 -8 l-55
-7 60 -2 c43 -1 56 -4 45 -11 -8 -5 -31 -10 -50 -11 -32 -1 -33 -2 -10 -9 22
-7 20 -8 -15 -9 -28 -1 -36 -4 -26 -10 11 -7 5 -11 -22 -16 -20 -4 -43 -5 -52
-2 -8 4 -17 2 -20 -3 -3 -4 1 -10 7 -12 7 -3 1 -7 -14 -10 -24 -4 -25 -3 -16
18 7 16 7 32 0 54 -11 29 -10 31 8 25 15 -5 20 -2 20 13 0 11 -8 23 -17 26
-14 6 -14 9 5 22 12 8 19 20 16 26 -4 6 -3 9 2 5 5 -3 18 1 29 9 24 18 20 17
-41 -1 -69 -20 -118 -82 -128 -158 -4 -31 -1 -36 17 -40 15 -3 12 -5 -10 -6
-17 0 -35 -6 -39 -13 -12 -20 134 -2 215 27 41 15 121 33 178 40 153 20 240
66 308 165 16 22 32 37 36 33 4 -4 25 -51 47 -104 60 -146 141 -314 318 -664
140 -275 264 -544 288 -622 l7 -23 -773 -3 c-425 -1 -45 -3 845 -5 l1617 -2 0
4250 0 4250 -1615 0 -1615 0 1 -1957z m2614 -91 c-6 -5 -44 -15 -85 -23 l-75
-14 115 -6 c64 -3 124 -11 135 -17 25 -14 23 -14 -67 -2 -50 7 -90 7 -128 -1
-98 -18 -290 -35 -290 -24 0 5 148 51 245 75 74 19 165 26 150 12z m278 -59
c-13 -2 -33 -2 -45 0 -13 2 -3 4 22 4 25 0 35 -2 23 -4z m72 -13 c13 -5 14 -9
5 -9 -8 0 -24 4 -35 9 -13 5 -14 9 -5 9 8 0 24 -4 35 -9z m-1966 -55 c44 -21
78 -42 75 -46 -2 -4 6 -15 19 -24 28 -18 91 -10 83 11 -4 9 12 12 63 11 46 -1
67 -6 64 -13 -3 -7 29 -20 79 -34 46 -12 94 -28 108 -35 14 -7 35 -16 48 -20
l23 -7 -16 34 -17 33 29 -30 c31 -31 63 -82 44 -71 -5 4 -27 0 -48 -9 -30 -13
-35 -18 -23 -25 8 -5 23 -10 33 -10 28 0 16 -34 -13 -39 -14 -1 -39 -18 -57
-36 -37 -38 -55 -46 -107 -50 l-39 -3 24 19 24 19 -32 0 c-34 0 -53 17 -33 30
23 14 -7 21 -52 11 -57 -12 -141 -13 -113 -1 19 7 18 9 -8 19 -16 6 -38 11
-50 11 -36 0 -47 12 -32 34 17 23 55 17 133 -19 58 -27 82 -31 82 -15 0 6 6
10 14 10 8 0 27 5 43 11 l28 10 -39 19 c-22 10 -45 16 -52 13 -7 -2 -15 0 -18
6 -8 13 -234 13 -242 0 -3 -6 5 -7 20 -3 17 4 26 2 26 -5 0 -19 -31 -25 -47
-8 -12 12 -21 13 -39 5 -13 -6 -24 -15 -24 -20 0 -4 -10 -8 -22 -8 -18 0 -20
2 -8 10 8 5 11 12 7 16 -3 4 -13 1 -22 -6 -13 -11 -103 -16 -185 -11 -23 2
-23 3 10 18 25 12 64 17 138 17 56 1 102 4 102 7 0 4 -15 14 -32 22 l-33 16
28 10 c16 6 34 11 42 11 24 0 78 27 64 32 -8 3 -23 1 -34 -4 -13 -6 -31 -5
-50 3 -17 6 -41 11 -55 10 -21 -2 -25 2 -26 29 -1 16 3 30 7 30 14 0 10 22 -7
41 -15 16 -14 17 9 15 14 -2 61 -20 106 -41z m281 -7 c0 -6 -6 -5 -15 2 -8 7
-15 14 -15 16 0 2 7 1 15 -2 8 -4 15 -11 15 -16z m40 -12 c0 -2 -9 -6 -20 -9
-11 -3 -18 -1 -14 4 5 9 34 13 34 5z m1385 -16 c17 -7 16 -9 -10 -9 -16 0 -37
4 -45 9 -12 8 -10 10 10 9 14 0 34 -4 45 -9z m153 -22 c24 -1 46 -6 49 -11 4
-6 0 -8 -10 -4 -10 3 -17 3 -17 -2 0 -5 10 -11 23 -14 132 -30 237 -68 237
-86 0 -15 -45 -18 -107 -9 -32 5 -65 9 -73 8 -43 -2 -64 1 -75 10 -6 5 -33 12
-61 14 -27 3 -50 10 -52 16 -2 5 -19 10 -38 10 -21 0 -33 4 -29 10 4 6 12 7
18 3 8 -4 8 -2 -1 9 -11 13 -9 17 13 22 14 4 23 11 20 16 -6 10 23 19 45 14 9
-2 35 -5 58 -6z m-1991 -12 c4 -7 15 -15 22 -18 13 -4 13 -5 0 -9 -7 -3 -24 5
-36 18 -16 16 -18 23 -8 23 8 0 18 -6 22 -14z m90 -42 c-6 -6 -47 9 -47 17 0
5 11 3 25 -3 14 -6 24 -13 22 -14z m713 -88 c0 -11 -19 -15 -25 -6 -3 5 1 10
9 10 9 0 16 -2 16 -4z m1200 -95 c0 -5 17 -16 38 -24 41 -17 122 -94 87 -83
-11 3 -44 10 -73 16 -50 9 -172 67 -172 82 0 4 19 9 43 11 23 2 50 4 60 5 9 1
17 -2 17 -7z m-1370 -75 c0 -2 -9 -6 -20 -9 -11 -3 -18 -1 -14 4 5 9 34 13 34
5z m200 -15 c0 -5 10 -11 22 -14 12 -4 19 -10 15 -14 -4 -4 3 -13 15 -20 23
-12 23 -12 -7 -13 -26 -1 -27 -3 -10 -10 12 -6 -36 -8 -125 -5 -167 4 -155 3
-146 12 3 4 -3 12 -15 18 -19 11 -11 14 62 29 129 25 189 31 189 17z m-1419
-201 c10 -6 19 -17 19 -25 0 -8 8 -15 18 -15 16 -1 16 -1 -1 -14 -20 -16 -78
-7 -85 12 -2 7 2 10 11 6 11 -4 13 1 10 20 -6 29 -1 31 28 16z m-58 -78 c11
-12 13 -22 7 -32 -8 -12 -12 -11 -30 8 -12 12 -18 27 -15 32 9 15 20 12 38 -8z
m753 -61 c5 -5 18 -11 29 -14 16 -4 15 -5 -5 -6 -14 0 -34 6 -44 14 -15 11
-16 15 -5 15 8 0 19 -4 25 -9z m-748 -26 c4 -4 -2 -6 -13 -5 -41 5 -62 0 -62
-15 0 -8 4 -12 8 -9 4 2 10 0 14 -6 3 -5 -1 -10 -11 -10 -14 0 -15 -2 -3 -17
13 -15 10 -16 -29 -10 -47 6 -62 14 -47 25 14 10 17 32 5 32 -5 0 -10 4 -10 8
0 5 13 7 29 4 16 -2 32 1 36 7 7 12 70 9 83 -4z m680 -10 c20 -14 30 -25 22
-24 -17 1 -59 17 -47 18 5 1 5 6 2 11 -5 8 -11 7 -21 -1 -14 -11 -20 1 -7 14
9 10 10 10 51 -18z m282 -92 c10 -12 24 -32 31 -44 17 -33 51 -59 68 -53 8 2
18 -1 22 -7 4 -7 32 -14 63 -17 31 -2 56 -7 56 -11 0 -3 45 -5 101 -3 70 2 99
0 94 -7 -3 -6 -16 -12 -28 -12 -13 -1 -8 -4 13 -8 19 -4 38 -2 41 3 4 4 20 8
35 8 16 0 43 7 59 15 28 14 29 14 14 -1 -8 -9 -41 -27 -73 -40 -32 -13 -52
-26 -44 -29 17 -6 -43 -10 -148 -9 -45 0 -105 7 -133 16 -62 18 -123 54 -115
67 3 5 -5 9 -18 9 -18 0 -20 2 -8 10 11 7 4 11 -28 16 -23 3 -47 13 -54 22
-11 13 -10 14 9 4 19 -11 73 -13 73 -4 0 2 -20 28 -45 59 -25 30 -45 62 -45
71 1 13 5 11 21 -8 11 -14 29 -35 39 -47z m-1123 1 c13 -4 20 -10 17 -15 -3
-5 1 -9 8 -9 10 0 10 -2 -1 -9 -16 -10 -43 -3 -36 9 3 5 -3 13 -12 19 -20 12
-9 14 24 5z m2900 -8 c-3 -8 1 -17 9 -20 9 -4 14 2 14 17 1 21 1 21 15 -3 15
-27 21 -95 6 -72 -4 8 -12 12 -17 10 -11 -4 -47 59 -39 72 9 15 18 12 12 -4z
m-2131 -51 c19 -14 19 -14 -1 -16 -37 -4 -80 3 -90 13 -7 6 -1 7 16 3 16 -4
30 -2 33 4 9 15 18 14 42 -4z m-113 -52 c-7 -2 -19 -2 -25 0 -7 3 -2 5 12 5
14 0 19 -2 13 -5z m915 2 c-3 -3 -40 -7 -84 -10 -46 -2 -71 -1 -59 4 21 9 151
14 143 6z m-1538 -29 c0 -2 -7 -7 -16 -10 -8 -3 -12 -2 -9 4 6 10 25 14 25 6z
m596 -21 c10 -8 14 -15 8 -15 -5 0 -19 7 -30 15 -10 8 -14 15 -8 15 5 0 19 -7
30 -15z m334 -35 c18 -12 2 -12 -25 0 -13 6 -15 9 -5 9 8 0 22 -4 30 -9z m821
-4 c-9 -11 -9 -15 1 -19 7 -2 11 -6 8 -9 -3 -2 -21 -18 -42 -35 -20 -17 -70
-42 -115 -56 -90 -30 -217 -45 -227 -28 -4 6 -16 11 -27 11 -35 0 -20 17 26
30 25 7 45 16 45 19 0 4 27 13 60 19 33 7 63 18 67 25 15 23 105 49 197 56 15
1 16 -2 7 -13z m-771 -16 c8 -5 11 -10 5 -10 -5 0 -17 5 -25 10 -8 5 -10 10
-5 10 6 0 17 -5 25 -10z m429 -26 c2 -2 -12 -4 -32 -4 -20 0 -38 4 -41 9 -5 8
64 4 73 -5z m337 -71 c-11 -11 -19 6 -11 24 8 17 8 17 12 0 3 -10 2 -21 -1
-24z m-439 -19 c-3 -3 -12 -4 -19 -1 -8 3 -5 6 6 6 11 1 17 -2 13 -5z m1688
-96 c8 -29 15 -66 15 -85 0 -18 5 -52 12 -76 13 -51 4 -102 -17 -93 -8 3 -17
1 -20 -4 -10 -17 -35 -11 -35 8 0 10 -4 22 -9 28 -4 5 -14 30 -21 56 -11 43
-11 48 9 69 17 18 21 36 21 84 0 93 19 99 45 13z m-1598 46 c-3 -3 -12 -4 -19
-1 -8 3 -5 6 6 6 11 1 17 -2 13 -5z m193 -9 c-7 -9 -15 -13 -17 -11 -7 7 7 26
19 26 6 0 6 -6 -2 -15z m453 -4 c7 -7 50 -149 62 -208 3 -17 1 -51 -6 -75 -7
-23 -14 -51 -15 -60 0 -9 -11 -33 -23 -53 -11 -20 -15 -33 -9 -30 7 4 2 -3
-12 -14 -14 -11 -28 -21 -32 -21 -5 0 -8 -5 -8 -11 0 -6 -11 -24 -25 -41 -31
-37 -32 -71 -3 -90 l23 -15 -45 -44 c-25 -24 -48 -44 -51 -44 -10 0 -59 -62
-53 -68 3 -3 23 -3 44 0 49 7 90 -3 90 -21 0 -8 10 -16 23 -18 12 -2 22 -7 22
-13 0 -5 4 -16 8 -22 5 -7 6 -17 2 -22 -3 -5 -1 -12 4 -16 21 -13 -32 -90 -56
-81 -7 3 -10 -1 -6 -9 4 -13 1 -13 -29 -1 -40 17 -210 13 -255 -6 -26 -11 -22
-12 47 -18 83 -8 106 -13 163 -37 35 -15 37 -18 30 -47 -24 -93 8 -189 65
-194 31 -3 31 -4 16 -27 -23 -36 -90 -75 -126 -75 -18 0 -53 9 -77 20 -57 26
-61 25 -26 -7 48 -46 89 -69 128 -76 50 -8 67 -25 52 -53 -7 -14 -9 -44 -5
-81 8 -64 0 -97 -25 -107 -9 -3 -14 -10 -11 -15 3 -5 -10 -16 -29 -25 -20 -10
-33 -21 -30 -27 4 -5 0 -12 -8 -15 -8 -3 -17 -13 -19 -22 -3 -11 -16 -18 -34
-20 -36 -3 -51 -17 -36 -35 9 -11 2 -18 -33 -35 -29 -14 -43 -26 -39 -35 3 -8
-1 -21 -8 -28 -7 -8 -13 -26 -13 -41 1 -16 -2 -28 -6 -28 -6 0 -39 -94 -39
-114 0 -6 -9 -17 -20 -24 -11 -7 -20 -16 -20 -21 0 -13 -90 -108 -90 -96 -1 6
-8 -2 -16 -17 -8 -16 -21 -28 -29 -28 -7 0 -23 -13 -34 -29 -18 -25 -63 -51
-166 -95 -46 -19 -124 -44 -201 -62 -77 -19 -226 -22 -232 -5 -2 6 -20 11 -40
11 -24 0 -53 10 -82 30 -25 16 -51 30 -57 30 -7 0 -20 12 -29 26 -10 14 -30
39 -46 56 -15 16 -28 34 -28 38 0 4 -9 10 -20 13 -11 3 -23 13 -27 24 -3 10
-22 38 -40 62 -18 24 -36 61 -39 83 -4 21 -17 50 -30 65 -13 16 -25 31 -25 36
-3 15 -6 23 -22 61 -9 21 -17 41 -17 44 0 3 -8 24 -19 46 -54 118 -72 285 -46
430 20 114 10 128 -45 66 -22 -25 -40 -49 -40 -55 0 -5 -16 -26 -35 -45 -36
-35 -45 -60 -22 -60 6 0 2 -8 -9 -18 -27 -21 -45 -107 -44 -207 0 -50 -2 -66
-10 -55 -7 11 -10 6 -10 -21 0 -20 -3 -51 -7 -69 -5 -25 -3 -31 7 -25 9 5 10
2 5 -15 -10 -31 -9 -141 1 -149 5 -3 10 -19 11 -35 4 -55 -15 -11 -33 79 -27
131 -25 328 4 462 82 368 250 713 410 838 51 41 130 77 173 81 9 1 31 9 49 18
18 9 43 16 56 16 13 0 26 5 29 10 3 6 17 10 31 10 14 0 35 5 47 12 55 29 122
9 123 -37 1 -11 2 -36 3 -55 1 -33 37 -107 47 -98 2 3 0 18 -6 34 -28 71 21
101 148 89 92 -8 164 -24 174 -39 4 -6 8 -26 8 -45 0 -46 36 -106 77 -128 18
-10 31 -23 28 -30 -10 -28 25 -11 53 25 39 50 59 91 72 147 14 61 6 69 -16 16
-9 -22 -20 -41 -25 -41 -5 0 -16 14 -24 30 -9 17 -20 28 -26 24 -6 -3 -13 3
-16 14 -3 13 -17 23 -34 27 -16 4 -29 11 -29 17 0 6 -9 8 -20 5 -11 -3 -17 -1
-14 4 3 6 -5 7 -19 4 -19 -5 -27 -2 -31 12 -4 14 -16 18 -53 18 -27 0 -48 5
-50 12 -3 8 -15 10 -32 7 -16 -3 -38 -1 -50 5 -19 11 -20 14 -6 27 8 9 15 25
15 36 0 24 73 98 95 98 8 0 15 3 15 8 0 4 42 6 93 3 50 -2 104 -4 120 -5 15 0
27 -4 27 -7 0 -3 11 -11 24 -17 14 -6 37 -32 52 -58 22 -37 27 -58 26 -102 -2
-60 5 -63 18 -8 5 25 4 36 -4 37 -7 0 -7 2 2 6 20 8 15 76 -8 101 -28 29 -26
62 3 63 46 3 68 7 74 13 4 3 16 0 28 -8 30 -19 82 3 91 39 5 21 0 32 -29 60
-20 19 -43 35 -52 35 -8 0 -15 4 -15 8 0 9 -55 31 -115 47 -24 6 -40 16 -41
25 -1 24 15 50 31 50 8 0 23 8 33 18 18 18 142 82 160 82 5 0 13 7 16 16 4 11
13 14 27 11 11 -3 34 -1 52 5 70 23 180 28 200 9z m-2023 -306 c0 -12 -28 -35
-44 -35 -14 0 -5 30 12 39 24 14 32 13 32 -4z m-64 -99 c0 -13 -3 -22 -5 -20
-2 2 -10 -1 -18 -8 -21 -17 -27 -1 -9 27 21 32 34 32 32 1z m3111 -168 c-3 -8
-6 -5 -6 6 -1 11 2 17 5 13 3 -3 4 -12 1 -19z m-3047 -2882 c0 -9 -63 -36 -69
-30 -9 8 30 34 51 34 10 0 18 -2 18 -4z m315 -236 c3 -5 -1 -10 -9 -10 -9 0
-16 5 -16 10 0 6 4 10 9 10 6 0 13 -4 16 -10z m-203 -190 c10 0 18 -4 18 -8 0
-5 -13 -7 -30 -4 -19 3 -30 10 -30 20 0 12 3 13 12 4 7 -7 20 -12 30 -12z"/>
<path d="M1026 6202 c-3 -5 1 -15 9 -22 17 -14 58 -4 52 13 -4 15 -53 22 -61
9z"/>
<path d="M1180 6070 c20 -13 33 -13 25 0 -3 6 -14 10 -23 10 -15 0 -15 -2 -2
-10z"/>
<path d="M1780 4119 c0 -5 5 -7 10 -4 6 3 10 8 10 11 0 2 -4 4 -10 4 -5 0 -10
-5 -10 -11z"/>
<path d="M751 3882 c-35 -6 -48 -22 -43 -55 4 -28 6 -29 41 -22 20 4 73 10
119 14 45 4 85 11 89 14 3 4 -1 7 -10 7 -9 0 -17 6 -17 14 0 21 -114 39 -179
28z"/>
<path d="M1128 3822 c-48 -53 -72 -129 -64 -196 10 -75 14 -101 16 -101 1 0 4
-17 6 -38 l5 -38 -38 7 c-21 4 -49 15 -62 25 -13 11 -29 19 -36 19 -6 0 -22
11 -35 25 -13 14 -29 25 -35 25 -18 0 -98 84 -128 135 -15 26 -31 45 -34 42
-3 -4 14 -39 37 -78 41 -69 175 -215 263 -287 57 -46 191 -108 284 -131 86
-22 189 -28 178 -11 -3 6 -15 10 -27 10 -14 0 -18 5 -14 15 3 9 0 15 -10 15
-8 0 -12 5 -9 10 3 6 12 10 20 10 21 0 83 45 108 77 22 29 61 68 94 93 35 27
41 48 27 103 -15 58 -42 87 -153 161 -99 66 -138 83 -235 99 -48 9 -96 23
-106 32 -16 14 -20 13 -52 -23z"/>
<path d="M142 3300 c0 -14 2 -19 5 -12 2 6 2 18 0 25 -3 6 -5 1 -5 -13z"/>
<path d="M80 1680 c0 -5 4 -10 9 -10 6 0 13 5 16 10 3 6 -1 10 -9 10 -9 0 -16
-4 -16 -10z"/>
<path d="M97 1523 c-4 -3 -19 -8 -33 -9 -32 -3 -41 -11 -28 -24 11 -11 151
-50 180 -50 12 0 24 -4 26 -9 4 -11 58 -2 58 9 0 4 -34 13 -76 20 -42 7 -82
19 -89 27 -7 7 -22 10 -32 7 -17 -5 -17 -5 0 9 9 8 17 17 17 21 0 8 -15 8 -23
-1z"/>
<path d="M1 1323 c-1 -68 1 -123 3 -123 2 0 12 -3 22 -7 14 -5 16 -3 10 12 -4
10 -9 58 -12 107 -8 144 -23 151 -23 11z"/>
<path d="M119 1321 c-34 -35 -47 -121 -18 -121 5 0 9 8 9 19 0 10 9 39 21 65
26 59 22 71 -12 37z"/>
<path d="M312 1233 c2 -10 11 -19 21 -21 21 -4 13 24 -9 32 -11 4 -14 1 -12
-11z"/>
<path d="M12 918 c-7 -7 -12 -42 -12 -90 l0 -77 38 -10 c20 -5 49 -13 64 -16
l26 -7 -38 104 c-37 101 -53 121 -78 96z"/>
<path d="M16 668 c-16 -53 -15 -59 26 -84 49 -31 125 -107 133 -134 4 -11 11
-20 16 -20 12 0 7 29 -25 139 l-21 74 -50 18 c-61 21 -75 23 -79 7z"/>
</g>
</svg>
