<?xml version="1.0" standalone="no"?>
<!DOCTYPE svg PUBLIC "-//W3C//DTD SVG 20010904//EN"
 "http://www.w3.org/TR/2001/REC-SVG-20010904/DTD/svg10.dtd">
<svg version="1.0" xmlns="http://www.w3.org/2000/svg"
 width="1536.000000pt" height="1152.000000pt" viewBox="0 0 1536.000000 1152.000000"
 preserveAspectRatio="xMidYMid meet">

<g transform="translate(0.000000,1152.000000) scale(0.100000,-0.100000)"
fill="#000000" stroke="none">
<path d="M0 10815 l0 -705 26 11 c15 5 29 7 32 5 2 -3 25 9 49 25 24 17 47 28
51 25 3 -4 11 7 18 24 9 20 18 28 28 24 9 -3 16 -1 16 5 0 6 -4 11 -9 11 -20
0 -3 35 19 40 15 3 24 14 27 30 4 28 42 72 54 64 5 -3 9 4 9 16 0 12 5 18 10
15 6 -3 10 3 10 14 0 11 4 22 9 26 5 3 12 19 16 35 4 17 14 37 22 46 8 8 19
38 23 67 7 47 8 48 9 14 1 -46 20 -41 22 6 1 21 3 25 6 12 3 -11 0 -51 -7 -90
-24 -141 -29 -172 -46 -303 -15 -115 -15 -135 -3 -147 12 -11 20 -11 52 3 20
9 40 26 44 37 6 16 8 14 13 -15 l6 -35 11 45 11 45 1 -39 c1 -22 3 -37 7 -34
11 12 91 393 158 758 13 74 34 185 45 245 23 123 47 281 55 368 l6 57 -400 0
-400 0 0 -705z"/>
<path d="M980 11480 c0 -22 -4 -40 -10 -40 -5 0 -10 -7 -10 -15 0 -8 4 -15 9
-15 5 0 11 -12 14 -26 4 -20 1 -25 -12 -21 -14 3 -16 -2 -13 -25 4 -23 7 -26
18 -17 16 13 44 -4 44 -27 0 -8 9 -14 20 -14 11 0 20 -6 20 -13 0 -8 9 -22 20
-32 11 -10 20 -24 20 -32 0 -7 3 -12 8 -11 18 5 53 -15 48 -28 -3 -7 -1 -16 4
-19 6 -4 10 -1 10 4 0 16 17 13 23 -3 4 -10 1 -13 -9 -9 -7 3 -14 -1 -14 -7 0
-9 -5 -9 -17 3 -10 8 -37 23 -60 32 -27 11 -40 22 -36 29 3 6 2 8 -2 3 -5 -4
-10 -18 -12 -30 -2 -16 -1 -18 6 -8 8 12 22 7 78 -27 69 -42 89 -50 78 -33 -9
15 15 25 28 12 9 -9 8 -11 -5 -6 -11 5 -16 2 -14 -9 3 -21 133 -99 149 -90 6
4 9 4 5 -1 -5 -5 0 -14 10 -20 51 -35 76 -49 70 -40 -4 6 2 11 12 11 13 0 16
-4 9 -12 -11 -14 186 -138 203 -128 6 4 8 3 5 -3 -4 -6 45 -41 114 -82 66 -39
121 -71 123 -71 1 0 54 -31 117 -70 63 -38 175 -104 249 -146 74 -43 170 -99
212 -126 43 -26 80 -48 84 -48 8 0 87 -54 186 -128 l87 -65 -75 -80 c-42 -43
-73 -81 -71 -84 7 -7 46 15 92 52 98 79 130 69 53 -17 -85 -92 -127 -134 -197
-197 -39 -35 -71 -69 -71 -77 0 -8 -3 -14 -7 -14 -12 0 -32 -50 -27 -65 3 -7
1 -16 -5 -19 -10 -6 -61 -109 -65 -130 -1 -6 -11 -29 -23 -51 -11 -22 -24 -56
-28 -75 -4 -19 -13 -46 -20 -60 -21 -42 -29 -73 -16 -66 6 4 11 1 11 -6 1 -7
18 39 39 102 22 63 57 153 80 199 23 47 41 94 41 105 0 10 3 16 7 13 3 -4 21
14 38 41 38 54 85 101 85 83 0 -17 -18 -49 -50 -91 -35 -46 -86 -185 -155
-425 -14 -49 -37 -126 -49 -170 -33 -112 -64 -250 -71 -315 -11 -106 -27 -215
-32 -220 -7 -7 4 226 16 325 5 44 19 133 30 198 25 139 24 127 10 127 -6 0 -9
-9 -6 -20 3 -11 2 -20 -2 -20 -3 0 -14 -22 -24 -50 -14 -39 -23 -50 -40 -50
-37 -1 -56 -24 -70 -87 -8 -33 -20 -70 -27 -83 -9 -17 -11 -52 -7 -121 7 -107
-1 -187 -14 -154 -4 11 -8 39 -8 63 -1 47 -17 51 -19 5 0 -16 -8 -59 -16 -96
-25 -109 -20 -185 21 -287 3 -8 5 -21 4 -28 -1 -6 5 -27 14 -46 9 -19 15 -47
12 -63 l-4 -28 -2 31 c-1 22 -7 33 -20 37 -17 4 -18 2 -9 -27 6 -17 10 -46 9
-65 -1 -18 4 -40 10 -47 6 -7 7 -19 3 -26 -4 -8 -4 -9 3 -3 5 6 29 53 52 105
113 247 158 329 241 445 l22 30 -7 -40 c-4 -22 -7 -44 -8 -50 -1 -5 -5 -12 -8
-15 -3 -3 -16 -55 -28 -115 -22 -111 -41 -179 -54 -191 -4 -4 -7 -18 -7 -31 0
-13 -4 -31 -9 -41 -5 -9 -19 -51 -31 -92 -11 -41 -25 -89 -31 -107 -5 -17 -9
-35 -8 -40 1 -4 -3 -21 -9 -36 -7 -16 -12 -34 -12 -40 0 -21 -68 -234 -85
-267 -9 -17 -23 -34 -31 -37 -8 -3 -22 -22 -31 -42 -9 -20 -19 -40 -21 -44 -2
-5 5 -4 16 2 12 6 23 7 26 3 5 -8 -207 -143 -345 -221 -68 -38 -129 -112 -165
-202 -14 -35 -31 -67 -36 -70 -5 -3 -9 -9 -9 -13 1 -3 -10 -29 -24 -57 -41
-80 -24 -77 29 6 26 41 51 75 53 75 10 0 -6 -77 -22 -106 -29 -57 -29 -109 -1
-189 25 -69 26 -79 16 -147 -12 -81 -23 -146 -39 -226 -22 -109 -4 -250 35
-283 15 -12 18 -1 28 81 8 67 45 178 65 193 10 6 20 20 24 30 3 9 10 17 14 16
25 -4 43 3 43 17 0 17 22 14 28 -4 2 -7 -4 -12 -13 -12 -13 0 -16 -10 -15 -52
0 -50 0 -76 0 -115 -1 -60 -18 -182 -29 -205 -8 -16 -23 -28 -38 -30 -23 -3
-23 -4 22 -65 25 -35 45 -67 45 -72 0 -6 9 -15 20 -21 11 -6 20 -14 20 -18 0
-4 -35 -19 -78 -35 -88 -31 -156 -67 -154 -82 1 -5 31 -13 68 -18 128 -14 311
-68 299 -88 -4 -5 -35 -9 -71 -9 -66 0 -249 51 -324 91 -61 31 -254 81 -500
128 -65 13 -350 30 -384 24 -42 -8 -37 13 12 48 26 19 50 34 54 34 4 0 13 6
20 13 9 10 1 9 -27 -3 -22 -10 -49 -19 -60 -22 -50 -13 -76 -30 -92 -63 -26
-51 -39 -61 -83 -67 -22 -3 -45 -12 -51 -19 -15 -18 -29 -18 -29 0 0 11 -18
16 -67 19 -38 3 -83 8 -101 12 -42 10 -118 -2 -137 -21 -20 -21 -19 -40 4 -63
11 -11 21 -32 23 -48 2 -20 8 -27 20 -25 19 3 36 -37 20 -47 -6 -3 -10 -34 -9
-69 1 -50 5 -63 19 -68 10 -3 18 -10 18 -15 0 -5 9 -18 19 -28 17 -17 18 -25
10 -63 -6 -23 -17 -53 -25 -65 -8 -12 -14 -29 -14 -37 0 -8 -4 -16 -8 -18 -4
-1 -29 -60 -56 -130 -58 -152 -68 -168 -106 -168 -17 0 -33 -7 -39 -17 -11
-21 -18 -20 -37 4 -11 15 -13 -342 -14 -2385 l0 -2404 1783 7 c2517 10 3844
10 4573 0 615 -8 632 -7 638 11 7 23 121 60 211 69 33 4 82 9 108 12 41 5 51
2 68 -16 11 -11 23 -21 27 -21 4 0 12 -11 18 -25 10 -21 9 -24 -10 -28 -11 -2
30 -5 92 -6 69 0 112 3 112 9 0 6 -19 10 -42 10 -23 0 -39 3 -35 6 3 4 41 3
84 -2 63 -6 72 -9 48 -15 -16 -3 144 -7 358 -8 252 -1 387 2 387 9 0 7 500 10
1478 11 812 1 1461 5 1442 9 -32 7 -31 8 20 10 l55 2 -44 9 c-44 8 -66 19 -41
19 33 0 -27 40 -76 51 -30 7 -54 16 -54 20 0 5 -18 12 -40 15 -22 4 -40 10
-40 15 0 5 -8 9 -17 9 -28 0 -145 39 -179 59 -17 11 -45 22 -62 26 -34 7 -57
29 -47 45 4 6 -3 10 -17 10 -18 0 -20 -2 -8 -10 9 -6 10 -10 3 -10 -6 0 -15 5
-18 10 -3 6 -17 10 -31 10 -15 0 -24 6 -24 15 0 8 -4 15 -9 15 -5 0 -4 11 2
25 7 14 18 25 25 25 8 0 1 16 -18 40 l-32 40 26 0 c16 0 26 6 26 14 0 32 28
45 85 39 54 -6 55 -5 55 21 0 26 13 35 25 16 3 -5 21 -10 40 -10 40 0 106 -57
83 -71 -10 -7 -10 -9 0 -9 6 0 12 -7 12 -15 0 -11 11 -15 40 -15 36 0 40 3 40
24 0 24 51 86 71 86 5 0 9 4 9 9 0 12 59 71 71 71 5 0 9 4 9 8 0 5 16 14 36
20 31 9 43 8 76 -9 21 -11 48 -29 58 -39 11 -11 30 -20 42 -20 31 0 108 -39
108 -55 0 -7 14 -15 30 -19 19 -3 34 -15 41 -30 8 -18 23 -27 50 -31 24 -4 39
-12 39 -21 0 -10 12 -14 40 -14 29 0 40 -4 40 -15 0 -8 5 -15 11 -15 6 0 20
-11 31 -25 11 -14 25 -25 33 -25 7 0 18 -7 25 -15 11 -13 8 -15 -20 -15 -28 0
-31 -2 -20 -15 7 -8 18 -15 25 -15 6 0 20 -9 31 -21 16 -17 16 -22 4 -30 -13
-8 -10 -14 13 -34 15 -13 27 -29 27 -35 0 -5 4 -10 9 -10 12 0 71 -59 71 -71
0 -5 -12 -10 -27 -11 -16 -1 -1 -4 32 -8 l60 -7 -70 -1 c-74 -2 -111 -14 -80
-26 9 -3 184 -5 388 -4 205 1 334 4 287 8 -57 3 -75 7 -55 11 24 5 20 6 -20 8
-64 2 -85 18 -85 65 0 25 -4 36 -15 36 -9 0 -15 9 -15 25 0 22 4 25 38 25 26
0 44 -7 61 -25 13 -14 28 -25 33 -25 14 0 -34 61 -58 74 -10 6 -24 18 -31 26
-11 13 -15 13 -29 -5 -16 -19 -16 -19 -10 8 5 23 2 29 -19 37 -15 6 -23 14
-20 20 3 5 1 10 -4 10 -6 0 -19 7 -28 15 -64 56 -93 79 -128 102 -100 66 -113
74 -121 72 -24 -4 -36 4 -51 35 -10 22 -29 40 -54 52 -21 9 -36 20 -33 25 2 5
-13 17 -35 28 -22 12 -42 25 -46 31 -3 5 -15 10 -25 10 -11 0 -24 9 -30 20 -6
11 -17 20 -26 20 -17 0 -32 11 -76 58 -17 17 -36 32 -42 32 -6 0 -22 11 -36
24 -14 13 -45 43 -70 66 -43 40 -44 43 -25 56 15 11 35 13 80 8 33 -4 62 -11
63 -15 2 -5 12 -9 22 -9 10 0 21 -4 24 -9 7 -11 86 -21 201 -27 50 -3 98 -7
108 -10 46 -14 5 11 -115 70 -73 35 -171 89 -218 118 -47 29 -97 59 -112 67
-15 8 -27 17 -26 20 1 3 -2 18 -6 33 -6 19 -20 31 -48 43 -79 31 -78 34 23
135 97 97 130 116 224 131 32 6 64 14 70 18 5 5 42 16 80 26 39 9 108 29 155
44 131 43 216 55 110 17 l-45 -17 50 6 c28 4 55 12 60 19 6 7 27 16 48 20 31
6 37 4 37 -11 0 -13 3 -14 12 -5 7 7 29 12 50 12 27 0 38 4 38 15 0 9 -9 15
-22 16 -14 0 -2 7 26 15 40 13 50 13 58 2 7 -10 11 -10 22 5 7 9 23 17 35 17
20 0 30 23 14 33 -5 2 -2 2 5 1 6 -2 12 1 12 6 0 6 12 10 26 10 16 0 24 5 21
13 -2 6 -10 11 -16 10 -6 -2 -11 2 -11 7 0 6 6 10 14 10 8 0 16 6 18 12 3 9 9
8 22 -5 24 -24 43 -22 21 3 -18 19 -17 20 3 20 11 0 24 5 28 11 4 7 25 9 55 7
30 -3 50 -1 52 6 2 6 8 8 12 3 10 -8 -15 -29 -62 -52 -17 -8 -33 -19 -35 -23
-6 -14 -66 -52 -82 -52 -9 0 -16 -4 -16 -9 0 -5 -21 -20 -47 -33 -27 -13 -57
-29 -68 -35 -11 -6 -39 -19 -62 -28 -24 -10 -43 -21 -43 -26 0 -4 -24 -12 -52
-19 -29 -7 -69 -22 -88 -35 -20 -12 -51 -26 -69 -30 -18 -4 -30 -9 -27 -12 8
-8 -50 -53 -68 -53 -10 0 -16 -9 -16 -24 0 -14 -14 -38 -32 -57 l-33 -33 35
-7 c19 -3 51 -13 70 -21 19 -9 41 -13 48 -11 6 3 12 0 12 -6 0 -6 -4 -11 -10
-11 -5 0 -10 -4 -10 -10 0 -5 10 -10 23 -10 13 0 28 -5 35 -12 6 -6 15 -8 19
-4 4 4 1 11 -6 15 -8 5 7 7 35 3 27 -2 52 -9 55 -15 4 -6 18 -2 35 10 16 11
55 33 88 48 42 20 54 30 45 36 -11 7 -10 9 5 9 16 0 57 28 107 75 9 8 21 15
27 15 7 0 12 6 12 14 0 8 11 17 25 20 13 3 30 16 36 27 9 17 13 19 20 8 6 -10
9 -8 9 9 0 14 6 22 18 22 9 0 27 15 39 33 32 45 181 189 224 215 30 18 38 20
48 9 6 -8 11 -25 10 -38 -3 -128 2 -172 24 -190 13 -11 38 -18 64 -19 23 0 44
-5 46 -12 4 -9 14 -4 31 15 14 15 30 27 36 27 5 0 10 6 10 14 0 8 6 16 12 19
8 2 13 24 14 58 2 75 22 325 35 436 6 51 9 99 6 107 -3 8 -1 17 6 20 7 2 2 5
-9 5 -12 1 -24 7 -27 15 -6 16 26 24 173 46 41 6 102 15 135 20 75 12 104 5
117 -29 10 -25 11 -25 19 -6 6 13 8 -1 4 -44 -3 -35 -5 -72 -5 -82 0 -11 -7
-19 -15 -19 -11 0 -15 -11 -15 -40 0 -29 4 -40 15 -40 8 0 15 -7 15 -15 0 -8
-4 -15 -10 -15 -5 0 -12 -11 -16 -25 -3 -14 -10 -25 -14 -25 -4 0 -11 -36 -15
-80 -4 -44 -11 -80 -16 -80 -5 0 -9 -27 -9 -59 0 -43 -4 -60 -15 -65 -17 -6
-20 -33 -4 -38 7 -2 7 -12 1 -28 -9 -22 -11 -23 -17 -7 -10 25 -25 3 -25 -36
0 -15 -8 -37 -19 -48 -10 -11 -22 -42 -25 -70 -4 -27 -11 -49 -16 -49 -6 0
-10 -9 -10 -20 0 -10 -4 -29 -9 -42 -5 -13 -22 -63 -36 -113 -15 -49 -33 -106
-40 -125 -7 -19 -23 -69 -35 -110 -37 -123 -211 -644 -220 -655 -13 -18 -33
-145 -27 -181 4 -23 2 -34 -7 -34 -7 0 -12 -15 -13 -36 -1 -20 -7 -40 -15 -45
-9 -6 -2 -9 22 -10 l35 -2 -35 -7 c-19 -4 -28 -9 -20 -10 8 -2 -14 -6 -50 -10
-37 -4 39 -7 180 -7 183 -1 234 2 201 9 -32 7 -40 12 -30 19 10 6 10 9 2 9
-21 0 -16 92 7 143 11 26 22 65 25 88 6 62 16 99 26 99 5 0 9 11 9 24 0 14 4
27 9 30 9 6 21 69 26 140 2 21 8 42 14 45 6 4 12 28 14 53 1 26 6 50 10 54 4
4 7 28 7 54 0 25 6 52 12 58 10 10 10 14 0 21 -11 6 -10 14 2 42 8 19 22 72
31 119 9 47 21 93 26 102 5 10 9 38 9 62 0 25 4 47 9 51 6 3 9 13 9 23 0 9 7
48 16 86 13 56 14 71 4 78 -10 6 -6 14 15 33 18 16 27 34 27 55 0 16 4 30 9
30 6 0 23 27 39 60 21 44 25 60 15 60 -9 0 -5 12 13 36 21 27 24 38 15 43 -10
7 -8 17 8 49 22 43 28 106 12 117 -6 3 -4 19 5 40 8 19 14 53 14 75 0 22 4 40
9 40 5 0 11 23 13 51 3 28 10 54 16 58 6 3 22 40 35 81 14 41 30 74 36 73 15
-4 27 50 13 55 -22 7 -14 73 12 97 19 17 24 33 24 66 0 68 10 119 28 147 9 13
11 21 5 18 -14 -9 -14 -4 -1 28 13 35 36 33 55 -4 8 -16 15 -32 14 -35 0 -3 6
-25 14 -48 16 -45 58 -294 57 -340 0 -15 7 -44 15 -64 17 -41 47 -448 38 -530
-3 -32 -2 -53 4 -53 6 0 13 -61 16 -142 3 -78 10 -144 15 -147 9 -6 9 -9 10
-216 1 -144 -2 -203 -17 -285 -53 -289 -67 -357 -87 -435 -13 -49 -35 -130
-49 -180 -15 -50 -31 -109 -36 -133 -5 -24 -11 -48 -15 -53 -3 -6 -7 -21 -9
-35 -2 -23 0 -24 51 -24 59 0 74 16 22 23 -28 3 -27 4 12 7 42 2 43 3 15 10
-17 4 -22 8 -11 9 13 1 16 5 10 19 -4 9 -9 34 -12 55 -3 30 -1 36 11 31 12 -4
17 3 21 30 3 20 8 51 11 70 3 19 1 37 -5 41 -7 4 -7 13 1 27 6 11 8 30 5 42
-4 15 2 30 15 45 12 13 18 29 14 38 -7 21 15 163 26 163 4 0 8 19 7 42 -1 67
14 192 23 199 14 9 31 109 30 177 -1 47 2 62 13 62 9 0 16 15 19 43 9 71 19
112 29 118 6 4 13 76 16 160 2 85 9 157 14 160 5 3 11 111 13 240 3 152 8 235
14 237 7 2 11 51 11 132 l0 128 31 31 c32 32 49 39 49 20 0 -6 11 -20 24 -30
14 -11 30 -36 36 -55 9 -27 15 -33 21 -23 7 11 13 9 31 -9 20 -19 21 -24 8
-33 -13 -8 -11 -13 13 -34 15 -13 27 -29 27 -35 0 -5 4 -10 9 -10 5 0 14 -15
22 -32 7 -18 26 -53 42 -77 23 -33 27 -45 17 -51 -10 -6 -5 -15 18 -35 18 -15
32 -33 32 -41 0 -13 16 -36 50 -73 8 -9 23 -34 33 -55 17 -36 129 -202 162
-238 8 -10 15 -21 15 -25 0 -4 10 -23 23 -42 13 -20 46 -71 73 -113 27 -42 52
-77 57 -78 4 0 7 222 7 493 0 466 -1 495 -18 510 -10 10 -28 17 -40 17 -12 0
-22 6 -22 13 0 7 -9 18 -19 24 -11 7 -26 25 -33 40 -8 16 -21 27 -30 25 -9 -1
-28 12 -43 30 -16 18 -34 32 -42 30 -7 -2 -13 4 -13 12 0 14 -58 66 -75 66 -4
0 -16 11 -27 25 -11 14 -24 25 -30 25 -6 0 -20 7 -30 17 -17 15 -19 15 -38 -2
-18 -16 -20 -16 -20 -2 0 11 -8 17 -23 17 -13 0 -28 5 -34 11 -7 7 -17 8 -25
3 -7 -5 -32 -9 -56 -10 -34 -1 -40 1 -31 12 6 7 7 19 3 25 -4 7 -3 9 3 6 5 -3
22 5 38 19 29 25 51 32 39 12 -4 -7 -3 -8 5 -4 6 4 9 11 6 16 -7 12 22 33 36
24 8 -5 9 -3 4 6 -6 9 -1 10 16 5 17 -4 20 -4 10 3 -11 8 -7 14 20 31 38 23
55 26 64 10 4 -6 13 -8 21 -5 16 6 19 -10 3 -19 -6 -4 -16 1 -24 11 -7 11 -16
16 -20 13 -12 -13 28 -39 60 -39 34 0 92 -30 131 -69 11 -11 38 -26 60 -34 21
-7 38 -18 37 -25 -4 -15 34 -35 53 -28 7 3 29 -1 49 -10 l35 -14 0 642 c0 450
-3 639 -11 628 -8 -12 -9 -8 -6 15 2 17 2 24 0 18 -7 -20 -19 -15 -34 15 -7
15 -54 68 -104 117 -49 50 -89 93 -87 97 1 5 -1 7 -6 6 -17 -3 -44 16 -53 39
-5 13 -13 22 -18 19 -5 -3 -13 0 -19 7 -7 8 -5 16 6 27 14 13 15 12 9 -3 -4
-11 -3 -16 4 -12 5 4 16 1 24 -5 9 -7 22 -9 32 -5 23 10 44 7 63 -10 16 -14
52 -14 60 0 3 4 -4 9 -15 10 -19 1 -95 67 -95 81 0 4 -8 13 -17 20 -10 7 -13
14 -7 14 19 0 93 -61 88 -74 -6 -14 23 -42 33 -32 9 8 54 -35 47 -45 -3 -5 5
-13 18 -18 23 -9 67 -51 53 -51 -4 0 -2 -7 5 -15 21 -25 30 -17 30 25 0 22 -5
40 -11 40 -5 0 -7 5 -3 12 4 6 3 9 -2 5 -5 -3 -31 13 -57 36 l-48 42 56 3 c41
2 55 -1 49 -9 -4 -8 -3 -9 4 -5 16 10 15 39 0 30 -10 -6 -10 -4 0 7 9 10 12
76 12 261 l0 248 -22 0 c-28 -1 -266 -44 -328 -60 -25 -6 -57 -14 -72 -17 -15
-3 -26 -9 -23 -13 2 -4 -7 -6 -20 -4 -14 1 -27 -2 -31 -7 -3 -5 -16 -9 -30 -9
-14 0 -22 -4 -19 -10 4 -6 -7 -8 -27 -5 -25 4 -28 3 -13 -4 19 -8 18 -9 -7
-20 -31 -12 -37 -35 -12 -45 8 -3 12 -11 8 -18 -5 -7 -1 -9 13 -6 12 3 20 0
20 -8 0 -19 -10 -17 -41 7 -15 12 -29 19 -32 16 -3 -3 -30 4 -59 14 -53 19
-145 26 -158 12 -11 -10 96 -44 120 -38 21 5 53 -6 131 -43 19 -9 40 -17 49
-18 8 -1 22 -8 31 -16 10 -7 38 -24 64 -37 42 -21 55 -41 27 -41 -6 0 -7 4 -4
10 3 5 2 10 -4 10 -5 0 -13 -4 -16 -10 -3 -5 -11 -10 -17 -10 -6 0 -8 3 -4 7
4 5 -9 14 -31 21 -26 8 -29 11 -10 8 34 -4 35 5 0 22 -34 15 -46 15 -37 0 4
-7 3 -8 -4 -4 -7 4 -12 14 -12 23 0 11 -6 14 -27 8 -22 -5 -25 -4 -14 8 9 12
8 16 -5 21 -22 9 -24 8 -18 -9 9 -22 -9 -18 -24 6 -10 15 -20 19 -38 15 -22
-6 -34 7 -16 17 4 2 0 2 -8 -1 -8 -3 -37 -8 -65 -11 -27 -4 -60 -13 -73 -20
-13 -7 -47 -14 -75 -17 -43 -4 -69 -8 -117 -19 -3 -1 -43 -5 -90 -9 l-84 -8
79 -23 c130 -38 480 -194 505 -225 3 -4 14 -10 25 -14 16 -6 17 -9 5 -17 -12
-9 -11 -10 4 -5 12 4 40 -9 85 -38 79 -53 130 -95 116 -96 -6 0 -23 11 -38 25
-20 20 -27 22 -27 10 0 -9 16 -25 35 -37 20 -11 34 -23 31 -25 -2 -3 -18 3
-34 13 -33 19 -61 64 -40 64 6 0 9 2 6 5 -3 3 -13 3 -22 -1 -15 -6 -15 -8 0
-33 9 -16 27 -34 40 -42 l25 -15 -36 -1 c-19 -1 -32 3 -29 8 4 8 -7 11 -33 8
-5 0 -7 -8 -5 -17 8 -49 14 -62 27 -62 19 0 55 -31 55 -47 0 -7 -7 -10 -15 -7
-8 4 -15 12 -15 20 0 10 -12 14 -40 14 l-40 0 0 40 c0 22 -4 40 -10 40 -5 0
-10 -7 -10 -15 0 -17 -18 -19 -40 -5 -9 6 -17 5 -22 -3 -5 -7 -8 -1 -8 16 0
23 -7 31 -35 43 -19 8 -35 21 -35 29 0 9 -9 15 -24 15 -14 0 -28 5 -31 10 -3
6 -14 10 -23 10 -10 0 -29 11 -43 24 -15 14 -30 21 -35 16 -5 -5 -39 6 -77 25
-38 19 -84 39 -103 45 -19 7 -40 17 -47 23 -14 14 -135 57 -158 57 -9 0 -22 6
-28 14 -7 8 -26 18 -42 21 -20 5 -29 12 -25 21 3 7 2 13 -2 11 -11 -3 -52 29
-45 36 9 10 45 9 40 0 -3 -5 5 -8 16 -9 47 -1 172 -38 187 -54 3 -3 31 -14 62
-25 31 -10 56 -24 55 -29 -1 -6 9 -10 22 -8 13 2 21 -1 17 -6 -3 -5 5 -13 19
-16 15 -4 22 -11 19 -20 -3 -7 10 -25 30 -39 41 -32 50 -34 43 -8 -3 15 1 21
17 24 21 3 21 4 1 13 -11 5 -69 35 -128 68 -136 73 -312 136 -384 136 -28 0
-55 5 -59 11 -3 6 -17 8 -31 4 -20 -5 -24 -3 -20 9 4 10 -3 17 -23 21 -16 4
-28 12 -27 18 1 7 -7 11 -18 9 -11 -2 -17 -1 -13 3 10 11 -60 47 -74 39 -7 -4
-8 -3 -4 4 14 23 -45 24 -127 2 -45 -13 -102 -26 -127 -29 -51 -8 -73 -18 -65
-32 4 -5 -9 -9 -27 -10 -27 0 -30 -2 -13 -9 11 -5 76 -9 145 -9 120 -1 131 -3
263 -46 146 -47 236 -91 308 -151 183 -152 227 -196 235 -240 3 -19 10 -34 15
-34 5 0 9 -9 9 -19 0 -11 18 -39 40 -63 31 -34 40 -51 40 -80 0 -27 4 -38 15
-38 16 0 33 -51 42 -127 3 -29 10 -53 14 -53 5 0 9 -5 9 -10 0 -6 12 -22 28
-35 23 -21 25 -26 12 -35 -13 -9 -11 -14 13 -35 31 -27 34 -42 11 -47 -12 -2
-6 -14 25 -47 40 -43 41 -46 41 -118 0 -58 3 -73 15 -73 11 0 15 -11 15 -40 0
-29 4 -40 15 -40 11 0 15 -11 15 -39 0 -33 -4 -40 -22 -44 -19 -4 -18 -4 5 -6
23 -1 27 -5 23 -19 -5 -13 1 -22 18 -30 21 -9 25 -8 29 6 4 16 5 16 6 0 1 -20
16 -24 26 -8 3 5 14 10 23 10 13 -1 9 -7 -13 -26 -50 -41 -62 -40 -192 25 -67
34 -126 61 -131 61 -6 0 -14 5 -18 12 -7 11 41 7 105 -9 16 -4 22 -2 17 5 -4
6 -22 14 -40 18 -34 6 -34 6 -15 25 13 13 19 33 19 64 0 42 2 45 23 40 20 -6
22 -3 22 35 0 34 -3 40 -20 38 -40 -3 -55 2 -55 20 -1 16 -1 16 -14 0 -19 -25
-35 -22 -42 8 -4 16 -11 23 -21 20 -18 -7 -30 24 -12 34 11 7 9 13 -8 32 -11
13 -26 47 -33 76 -7 30 -18 52 -25 52 -8 0 -16 17 -20 40 -4 22 -11 40 -16 40
-5 0 -9 6 -9 14 0 7 -8 24 -19 37 -10 13 -16 30 -14 37 3 7 -4 12 -15 12 -18
0 -39 39 -34 63 1 4 -10 6 -25 5 -35 -4 -39 25 -5 30 27 4 19 22 -11 23 -21 0
-21 1 -2 9 11 5 15 9 9 9 -6 1 -14 14 -17 30 -4 18 -14 32 -28 36 -17 6 -19 9
-8 16 11 7 9 10 -9 15 -15 4 -25 17 -29 35 -3 16 -11 29 -17 29 -6 0 -17 14
-23 30 -6 17 -17 30 -23 30 -10 0 -10 -3 0 -15 6 -8 9 -19 5 -25 -9 -15 25
-180 37 -180 5 0 7 -4 3 -9 -3 -6 4 -19 16 -30 12 -11 18 -24 15 -29 -3 -6 0
-12 6 -15 7 -2 9 -8 5 -13 -11 -11 -27 15 -20 33 3 7 0 13 -6 13 -11 0 -14 -8
-13 -50 l1 -25 -8 25 c-5 14 -9 21 -10 15 -1 -5 -7 -1 -15 10 -7 11 -17 53
-21 93 -9 96 -36 181 -75 242 -47 74 -63 79 -24 8 40 -75 44 -101 8 -59 -14
17 -32 31 -40 31 -8 0 -14 5 -14 10 0 11 -46 54 -52 49 -7 -7 -36 26 -30 35 3
5 -2 7 -11 3 -10 -3 -17 -2 -17 3 0 6 -7 10 -15 10 -8 0 -15 4 -15 10 0 5 -12
16 -27 24 -16 8 -39 24 -52 35 -13 12 -31 21 -40 21 -9 0 8 -16 38 -35 30 -19
57 -38 60 -43 3 -4 21 -20 39 -35 19 -15 30 -27 27 -27 -4 0 -2 -7 6 -16 10
-13 10 -17 -2 -24 -10 -7 -16 -3 -21 10 -4 11 -12 20 -17 20 -6 0 -8 -7 -4
-16 5 -14 3 -14 -16 -3 -12 8 -17 15 -11 17 5 2 10 8 10 14 0 6 -7 7 -16 4
-10 -4 -25 1 -36 11 -14 13 -19 14 -16 3 5 -21 -34 -25 -49 -4 -12 17 -13 16
-13 -5 0 -15 -7 -25 -21 -28 -14 -4 -18 -11 -13 -22 41 -98 55 -161 36 -161
-5 0 -15 18 -22 40 -7 22 -15 38 -18 35 -3 -2 -4 -40 -3 -84 1 -46 -2 -82 -8
-85 -12 -8 -16 7 -31 139 -18 156 -30 181 -152 315 -58 65 -122 127 -141 139
-36 22 -67 28 -67 12 0 -5 -16 -18 -35 -30 -19 -11 -35 -17 -35 -13 0 13 41
77 58 90 14 11 13 12 -6 12 -15 0 -24 8 -28 25 -9 38 1 148 14 153 6 2 14 30
18 64 4 37 12 62 21 65 11 5 13 19 7 70 -6 55 -4 66 12 77 14 10 16 17 8 27
-16 21 -24 59 -11 56 10 -2 11 40 4 193 0 14 5 84 12 155 18 186 30 435 27
545 -4 110 -55 473 -67 478 -5 2 -7 8 -4 12 3 5 0 90 -7 188 -10 161 -10 192
6 298 16 107 62 284 73 284 2 0 2 -20 -1 -46 -4 -31 -2 -43 5 -38 8 4 7 0 0
-15 -8 -13 -8 -21 -1 -21 5 0 17 17 26 38 94 219 137 361 149 497 7 68 9 76
18 55 35 -86 94 -187 67 -115 -15 40 -41 167 -36 173 3 2 8 -9 13 -24 l7 -29
6 30 c7 35 2 57 -11 49 -13 -7 -7 19 6 28 6 5 5 8 -2 8 -7 0 -13 6 -13 14 0 7
-8 24 -18 37 -23 29 -42 103 -42 161 0 24 -9 77 -19 118 -11 41 -18 76 -16 78
8 8 38 -91 42 -140 3 -32 9 -58 13 -58 4 0 10 -8 13 -17 3 -10 13 -36 21 -58
l16 -40 -6 50 c-3 28 -12 91 -19 140 -8 50 -17 133 -20 185 -3 52 -13 140 -21
194 -18 126 -18 119 11 112 21 -5 25 -3 25 15 0 20 2 19 32 -10 28 -27 53 -37
82 -32 5 1 18 -6 29 -16 19 -18 19 -17 12 7 -8 29 -58 121 -89 165 -12 16 -33
58 -47 94 -20 50 -24 69 -16 83 6 9 15 14 19 12 4 -3 8 3 8 14 0 30 69 104 92
99 49 -13 24 74 -50 173 -26 34 -58 79 -71 99 -27 40 -25 37 -100 115 -42 44
-57 54 -68 45 -12 -11 -18 -2 -14 24 0 4 -3 7 -8 7 -5 0 -19 -28 -31 -62 -76
-216 -91 -241 -82 -137 9 106 7 166 -8 184 -8 10 -11 31 -8 60 3 25 2 45 -3
45 -5 0 -9 -6 -9 -13 0 -13 -39 -51 -46 -45 -2 2 -4 35 -5 73 -2 74 -25 189
-29 145 -1 -14 -2 -31 -1 -37 1 -7 -3 -13 -9 -13 -5 0 -10 8 -10 19 0 10 -6
24 -14 31 -12 9 -17 7 -28 -9 -7 -12 -17 -21 -23 -21 -5 0 -23 -21 -40 -45
-16 -25 -35 -45 -41 -45 -7 0 -15 -10 -19 -22 -6 -20 -8 -21 -12 -5 -3 10 2
29 11 42 9 13 16 37 17 52 0 15 6 46 13 68 8 28 9 53 2 82 -8 35 -13 42 -39
47 -20 4 -34 2 -39 -6 -5 -9 -8 -5 -8 11 0 14 -4 38 -10 55 -5 17 -12 45 -16
61 -6 27 -7 28 -14 10 l-8 -20 -8 20 c-7 19 -23 35 -35 35 -3 0 -11 -11 -17
-24 -6 -13 -24 -39 -41 -57 -16 -19 -40 -45 -51 -59 -18 -21 -20 -22 -15 -5
36 104 66 264 72 374 5 93 3 122 -5 117 -7 -4 -12 -24 -12 -45 0 -32 -28 -95
-30 -66 0 6 -4 3 -9 -4 -8 -12 -11 -9 -16 12 -9 34 -15 34 -39 -2 -11 -16 -32
-36 -48 -46 -26 -15 -28 -15 -28 0 0 9 -9 19 -20 22 -24 7 -25 11 -2 36 16 19
16 20 -5 34 -13 9 -23 22 -23 29 0 8 -4 22 -9 32 -4 9 -15 31 -23 47 -9 17
-18 43 -22 58 -4 16 -19 40 -33 53 -25 23 -25 24 -4 24 21 0 21 2 -10 48 -18
26 -36 49 -41 50 -12 5 -10 22 3 22 6 0 24 -11 41 -25 16 -14 35 -25 42 -25 6
0 18 -9 26 -20 8 -11 19 -20 24 -20 6 0 5 5 -2 12 -27 27 -12 38 23 18 52 -29
52 -25 -4 31 -28 28 -51 60 -51 70 0 27 5 25 57 -26 26 -24 49 -43 51 -40 6 6
-128 165 -190 226 -32 31 -58 58 -58 62 0 18 115 -33 164 -72 53 -42 58 -39
11 9 -21 21 -68 55 -105 74 -72 38 -109 70 -148 129 -13 20 -31 37 -38 37 -8
0 -14 8 -14 18 0 11 -19 37 -42 60 -24 23 -51 51 -61 62 -13 15 -24 19 -45 14
-37 -9 -37 -9 -25 -49 13 -41 6 -115 -11 -115 -6 0 -26 18 -45 40 -37 44 -52
51 -44 20 4 -14 0 -20 -11 -20 -13 0 -16 -13 -16 -74 0 -74 -11 -99 -33 -77
-6 6 -14 11 -18 11 -7 0 6 -50 22 -82 5 -10 6 -25 2 -34 -4 -11 1 -22 13 -31
16 -12 17 -15 4 -23 -22 -14 -37 -7 -173 77 -117 73 -218 131 -337 195 -74 40
-90 55 -185 183 -45 61 -108 138 -139 173 -56 60 -59 62 -108 62 -48 0 -50 -1
-44 -22 4 -13 9 -48 12 -78 2 -30 7 -68 10 -85 3 -16 8 -46 10 -65 7 -55 10
-60 71 -86 133 -58 153 -68 153 -76 0 -4 -6 -8 -13 -8 -26 0 -235 111 -302
160 -118 87 -154 102 -272 108 -115 6 -106 -2 -118 94 -10 79 -27 70 -19 -11
4 -43 3 -76 -3 -83 -14 -17 -31 -111 -51 -271 -4 -32 -11 -57 -17 -57 -5 0
-10 5 -10 12 0 6 -6 13 -13 16 -17 5 -10 -31 11 -52 21 -22 24 -65 3 -47 -7 6
-21 9 -30 5 -10 -4 -16 -1 -16 9 0 9 -8 21 -17 27 -15 10 -15 11 -1 6 10 -3
18 2 21 15 3 10 1 19 -4 19 -15 0 -3 59 16 80 11 12 19 39 21 63 1 23 3 51 5
61 3 14 -2 19 -19 21 -13 1 -25 -3 -29 -8 -3 -5 -8 -5 -12 1 -7 12 -127 -23
-152 -44 -9 -8 -18 -11 -21 -8 -4 3 -9 -4 -13 -16 -5 -15 -2 -26 6 -31 11 -7
10 -9 -4 -9 -10 0 -27 -9 -39 -20 -17 -15 -25 -17 -41 -8 -17 9 -24 7 -38 -11
-10 -12 -16 -28 -13 -35 3 -7 -2 -16 -10 -19 -18 -7 -22 -27 -5 -27 21 0 104
-91 106 -117 1 -18 -2 -23 -13 -19 -7 3 -14 1 -14 -4 0 -6 5 -10 11 -10 5 0 8
-3 5 -8 -2 -4 -1 -44 3 -89 3 -45 3 -79 -1 -77 -4 3 -8 -1 -9 -8 -5 -59 -9
-86 -18 -108 -7 -19 -9 6 -9 95 0 161 -13 201 -72 231 -50 24 -104 42 -81 26
26 -18 2 -32 -44 -25 -38 5 -45 3 -45 -11 0 -13 -4 -15 -19 -6 -27 14 -38 13
-44 -4 -4 -10 -1 -13 9 -9 7 3 14 1 15 -3 0 -5 2 -17 4 -26 4 -22 -18 -24 -35
-3 -15 18 -49 19 -87 3 -39 -17 -39 -18 -23 -29 11 -8 8 -9 -11 -5 -23 5 -28
2 -33 -19 -4 -14 -13 -25 -21 -25 -8 0 -19 -9 -25 -20 -6 -11 -17 -20 -25 -20
-8 0 -15 -4 -15 -8 0 -5 -9 -13 -19 -18 -11 -5 -47 -35 -81 -67 -49 -47 -61
-64 -59 -85 4 -37 -7 -65 -52 -135 -21 -34 -36 -63 -34 -65 6 -6 75 49 86 70
5 10 14 18 19 18 5 0 24 13 42 29 67 60 125 107 178 146 30 21 57 42 60 45 3
3 14 12 25 20 14 10 13 6 -5 -14 -14 -15 -37 -35 -52 -44 -16 -9 -28 -19 -28
-23 0 -4 -17 -24 -38 -45 -20 -22 -46 -52 -57 -68 -11 -15 -53 -69 -93 -118
-41 -49 -72 -92 -69 -95 3 -2 34 15 69 39 35 23 73 48 86 55 20 10 21 10 13
-5 -6 -9 -22 -30 -37 -47 -15 -16 -43 -48 -63 -69 l-36 -40 35 30 c20 16 49
38 64 49 16 11 40 29 55 41 14 11 41 31 60 44 l33 23 -28 -44 c-15 -24 -34
-51 -41 -60 -7 -8 -13 -24 -13 -35 0 -10 -12 -33 -28 -49 -15 -17 -36 -46 -46
-65 -68 -123 -341 -431 -490 -552 -60 -50 -79 -59 -70 -33 4 8 10 15 15 15 5
0 15 14 24 30 9 17 13 30 10 30 -14 0 -54 -29 -97 -69 -26 -25 -50 -43 -52
-40 -3 3 16 32 43 65 46 56 81 114 81 131 0 11 -37 -34 -85 -102 -22 -31 -52
-70 -67 -85 -14 -16 -23 -32 -20 -37 4 -4 -2 0 -13 10 -19 17 -19 18 0 55 11
20 26 44 34 52 13 13 41 72 41 86 0 3 -17 -7 -37 -23 -43 -33 -63 -46 -63 -40
0 7 57 76 110 134 27 30 50 58 50 64 0 15 -18 10 -29 -8 -5 -10 -13 -14 -17
-10 -4 4 2 17 13 30 26 28 48 71 35 66 -6 -2 -35 -27 -64 -54 -93 -87 -204
-175 -222 -175 -2 0 -11 15 -20 34 -20 43 -21 98 -1 136 18 34 7 41 -13 9 -8
-12 -19 -18 -27 -15 -8 3 -27 -6 -41 -19 -15 -14 -30 -25 -33 -25 -4 0 -13 16
-20 35 -7 19 -17 33 -22 30 -5 -4 -9 -2 -9 3 0 6 -33 67 -72 137 -149 261
-368 493 -733 776 -60 47 -139 103 -174 124 l-63 38 -127 0 c-104 0 -136 -4
-186 -21 -65 -24 -90 -22 -98 9 -3 11 -15 23 -26 26 -28 7 -26 21 5 33 32 12
22 30 -16 30 -25 0 -33 7 -50 44 -11 25 -29 47 -40 51 -11 3 -20 10 -20 14 0
5 -13 14 -30 21 -16 7 -30 16 -30 20 0 4 -12 12 -26 18 -14 7 -23 16 -20 20 3
4 -16 14 -42 21 -78 22 -195 62 -226 78 -21 11 -89 16 -283 22 -177 4 -256 10
-261 18 -13 21 -174 -28 -215 -64 -9 -9 -19 -14 -22 -11 -3 2 19 21 48 42 28
21 45 35 37 33 -8 -3 -58 -15 -110 -26 -52 -12 -121 -27 -152 -34 -32 -8 -58
-11 -58 -7 0 13 47 29 133 44 116 21 147 38 52 30 -38 -3 -97 -10 -130 -16
-101 -16 -409 -110 -477 -145 -16 -7 -28 -11 -28 -7 0 4 -6 2 -12 -4 -7 -5
-28 -13 -46 -17 -18 -3 -30 -11 -27 -16 4 -5 -1 -6 -9 -3 -19 7 -157 -66 -149
-80 4 -5 -1 -7 -10 -3 -10 4 -29 -4 -49 -21 -17 -15 -33 -25 -34 -22 -2 7 -90
-56 -137 -99 -32 -29 -40 -32 -49 -20 -8 11 -8 10 -4 -5 5 -15 -3 -29 -31 -56
-59 -55 -108 -114 -90 -107 18 7 29 -4 19 -19 -4 -5 -23 -21 -42 -35 -70 -51
-77 -50 -29 6 37 42 27 47 -16 7 -41 -38 -163 -132 -171 -132 -3 0 -28 -18
-55 -41 -27 -22 -49 -36 -49 -31 0 6 5 14 10 17 5 3 10 11 10 17 0 6 -15 -1
-34 -15 l-34 -26 0 25 c0 23 67 106 187 233 17 19 30 36 27 38 -6 7 -82 -36
-101 -57 -10 -11 -23 -20 -28 -20 -6 0 -2 9 8 20 10 11 15 23 11 28 -4 4 -13
-1 -21 -11 -7 -9 -34 -24 -61 -32 -27 -8 -63 -27 -79 -42 -42 -38 -78 -58 -83
-45 -1 5 -26 8 -58 6 -54 -4 -103 -25 -239 -104 -27 -16 -103 -55 -167 -86
-112 -55 -149 -88 -133 -115 4 -5 0 -9 -7 -9 -19 0 -174 76 -182 88 -4 6 -27
21 -51 33 -46 23 -54 36 -33 57 18 18 -13 15 -40 -4 -22 -15 -26 -14 -75 19
-48 33 -135 88 -617 390 -96 60 -229 144 -295 186 -66 43 -160 102 -210 131
-49 30 -151 95 -225 144 -209 141 -211 142 -263 144 l-47 3 0 -41z m9504 -180
c15 -15 -10 -12 -44 5 -17 9 -30 17 -30 20 0 7 63 -14 74 -25z m-9205 -236
c14 -12 -19 -1 -35 12 -18 14 -18 14 6 3 14 -6 27 -13 29 -15z m5174 -28 c-51
-17 -120 -30 -112 -22 8 8 111 35 134 35 11 0 1 -6 -22 -13z m271 -51 c14 -13
20 -27 15 -30 -5 -4 -9 -2 -9 3 0 5 -9 12 -20 15 -11 3 -20 12 -20 21 0 22 5
20 34 -9z m-5303 -2 c13 -15 12 -15 -8 -4 -24 12 -29 21 -14 21 5 0 15 -7 22
-17z m3062 -115 c-16 -27 -67 -78 -77 -78 -5 0 10 20 34 45 45 46 57 55 43 33z
m5474 -10 c-3 -8 -6 -5 -6 6 -1 11 2 17 5 13 3 -3 4 -12 1 -19z m-8287 8 c0
-3 -4 -8 -10 -11 -5 -3 -10 -1 -10 4 0 6 5 11 10 11 6 0 10 -2 10 -4z m5379
-16 c9 -4 -7 -10 -42 -14 -42 -6 -56 -12 -60 -26 -3 -11 0 -22 7 -25 6 -3 -7
-2 -28 1 -36 5 -38 4 -26 -11 22 -27 -3 -42 -30 -17 l-22 20 29 32 c48 55 117
71 172 40z m-5352 -6 c-3 -3 -12 -4 -19 -1 -8 3 -5 6 6 6 11 1 17 -2 13 -5z
m10623 -67 c18 -15 30 -31 26 -34 -4 -4 -26 12 -49 36 -45 46 -32 45 23 -2z
m-10555 22 c11 -17 -1 -21 -15 -4 -8 9 -8 15 -2 15 6 0 14 -5 17 -11z m85 -54
c0 -2 -5 -7 -12 -11 -6 -4 -8 -3 -4 4 3 6 -7 16 -23 23 -16 7 -27 17 -25 21 5
7 64 -27 64 -37z m10464 -17 c11 -10 16 -18 12 -18 -12 0 -86 54 -86 63 0 9
45 -19 74 -45z m-5454 17 c7 -14 10 -28 7 -31 -4 -4 -9 0 -12 8 -4 10 -14 14
-26 11 -21 -6 -25 7 -7 25 17 17 23 15 38 -13z m-2552 -85 c-7 -11 -16 -20
-20 -20 -13 0 -9 28 5 33 23 10 27 7 15 -13z m5546 -95 c-3 -38 -10 -77 -14
-85 -4 -8 -10 -37 -13 -65 -4 -32 -3 -41 2 -25 4 14 13 34 19 45 6 11 16 41
23 68 11 44 32 80 23 40 -35 -160 -55 -226 -100 -339 -30 -74 -60 -145 -68
-157 -7 -12 -19 -55 -26 -94 -6 -40 -16 -73 -21 -73 -10 0 -1 77 12 102 7 12
5 16 -8 14 -9 -2 -19 -9 -21 -16 -3 -7 -17 -26 -31 -42 -46 -51 -101 -150
-120 -218 -44 -149 -83 -352 -85 -437 -1 -24 -4 -43 -7 -43 -14 0 -28 80 -22
128 5 41 3 52 -9 52 -8 0 -19 -5 -25 -11 -6 -6 -19 -9 -29 -7 -15 2 -11 8 19
25 20 12 37 29 37 38 0 8 5 15 11 15 8 0 8 4 1 13 -11 13 -10 35 6 137 12 76
33 133 79 209 20 33 33 68 33 88 0 19 6 48 14 66 7 18 16 55 20 82 14 98 17
110 37 142 12 18 22 33 24 33 2 0 -3 -21 -11 -47 -13 -40 -33 -147 -34 -176 0
-13 44 44 73 93 14 25 54 126 88 225 34 99 70 205 80 235 32 92 29 86 40 70 5
-9 7 -45 3 -85z m-5809 65 c-10 -11 -20 -18 -23 -15 -7 6 18 35 31 35 5 0 2
-9 -8 -20z m-494 -89 c-49 -59 -69 -76 -78 -67 -7 7 96 115 110 116 5 0 -9
-22 -32 -49z m5998 -16 c-29 -30 -58 -55 -64 -55 -5 0 17 27 50 60 32 33 61
57 64 54 3 -2 -20 -29 -50 -59z m2461 -15 c0 -5 -2 -10 -4 -10 -3 0 -8 5 -11
10 -3 6 -1 10 4 10 6 0 11 -4 11 -10z m-8280 -20 c0 -5 -5 -10 -11 -10 -5 0
-7 5 -4 10 3 6 8 10 11 10 2 0 4 -4 4 -10z m151 -17 c-13 -25 -120 -140 -121
-130 0 5 18 27 39 50 22 23 49 54 61 70 24 31 36 36 21 10z m5769 -123 c0 -11
6 -23 14 -26 8 -3 12 -13 9 -25 -8 -29 -19 -23 -31 20 -15 47 -15 51 -2 51 6
0 10 -9 10 -20z m-6144 -55 c-9 -14 -21 -25 -26 -25 -15 0 -12 7 12 35 27 31
37 24 14 -10z m8884 -70 c0 -8 -4 -15 -10 -15 -5 0 -10 7 -10 15 0 8 5 15 10
15 6 0 10 -7 10 -15z m120 -46 c0 -5 -4 -9 -10 -9 -5 0 -10 7 -10 16 0 8 5 12
10 9 6 -3 10 -10 10 -16z m-543 -325 c-3 -3 -12 -4 -19 -1 -8 3 -5 6 6 6 11 1
17 -2 13 -5z m-3817 -35 c0 -11 -4 -17 -10 -14 -5 3 -10 13 -10 21 0 8 5 14
10 14 6 0 10 -9 10 -21z m4680 11 c0 -5 -4 -10 -10 -10 -5 0 -10 5 -10 10 0 6
5 10 10 10 6 0 10 -4 10 -10z m-3626 -273 c-10 -12 -37 -38 -61 -57 -53 -43
-222 -150 -236 -150 -6 0 26 22 71 49 106 65 138 88 192 138 51 49 58 53 34
20z m4058 -214 c9 -25 15 -50 12 -55 -10 -16 -44 50 -44 84 0 39 9 31 32 -29z
m89 -56 c-3 -17 -101 -143 -119 -154 -16 -9 -23 -7 -47 19 -21 22 -25 32 -17
40 9 9 19 5 38 -13 19 -17 28 -20 31 -11 3 7 10 18 17 25 25 24 66 97 66 115
0 30 13 35 24 10 5 -13 8 -27 7 -31z m19 -157 c0 -5 6 -10 13 -10 26 0 59 -60
64 -119 5 -50 3 -60 -21 -87 -14 -17 -23 -34 -21 -38 3 -3 -1 -1 -9 6 -11 11
-56 124 -56 142 0 4 10 11 23 17 20 9 20 9 -5 4 -27 -5 -28 -4 -28 33 0 36 14
62 32 62 4 0 8 -4 8 -10z m-4882 -18 c16 -11 -27 -32 -64 -32 -29 0 -24 17 10
30 27 11 38 12 54 2z m-5785 -149 c-21 -43 -40 -80 -43 -83 -3 -3 -11 -16 -18
-30 l-12 -25 6 25 c10 42 88 190 100 190 2 0 -13 -35 -33 -77z m-120 -248 c-3
-9 -8 -14 -10 -11 -3 3 -2 9 2 15 9 16 15 13 8 -4z m10807 -99 c0 -5 -8 -1
-19 10 -10 10 -16 23 -14 27 5 9 32 -22 33 -37z m-10636 -25 c9 -14 -4 -41
-19 -41 -18 0 -28 17 -21 35 6 17 32 20 40 6z m10749 -23 c6 -22 5 -22 -8 -4
-17 22 -20 40 -6 32 5 -3 11 -16 14 -28z m-11188 -190 c-8 -61 -8 -62 -20 -34
-7 18 -15 24 -19 17 -9 -14 -46 -15 -46 -1 0 6 7 24 15 40 11 21 23 30 40 30
14 0 25 5 25 12 0 6 3 9 6 5 3 -3 3 -34 -1 -69z m10890 -129 c20 -39 35 -72
33 -75 -11 -11 -95 114 -122 181 l-16 40 34 -38 c19 -21 51 -70 71 -108z
m-7258 64 c-9 -9 -19 -14 -23 -11 -10 10 6 28 24 28 15 0 15 -1 -1 -17z m7380
-45 c-3 -8 -6 -5 -6 6 -1 11 2 17 5 13 3 -3 4 -12 1 -19z m-10696 -149 c-6
-24 -9 -28 -10 -12 -1 24 9 56 16 50 2 -3 0 -20 -6 -38z m-151 1 c0 -5 -5 -10
-11 -10 -5 0 -7 5 -4 10 3 6 8 10 11 10 2 0 4 -4 4 -10z m86 -67 c-10 -26 -18
-8 -9 23 5 21 8 24 11 11 2 -10 1 -25 -2 -34z m-110 -10 c-10 -26 -18 -8 -9
23 5 21 8 24 11 11 2 -10 1 -25 -2 -34z m-249 -5 c-3 -7 -5 -2 -5 12 0 14 2
19 5 13 2 -7 2 -19 0 -25z m8846 15 c-7 -2 -19 -2 -25 0 -7 3 -2 5 12 5 14 0
19 -2 13 -5z m-8607 -60 c-3 -16 -8 -50 -11 -78 -6 -45 -24 -114 -45 -170 -4
-11 -13 -40 -19 -65 -7 -25 -22 -65 -33 -90 -12 -25 -25 -54 -28 -65 -20 -56
-55 -127 -71 -141 -17 -15 -18 -14 -12 22 3 22 14 62 24 89 9 28 35 101 57
163 21 62 42 115 45 119 4 3 7 17 7 29 0 22 23 80 56 146 8 14 14 36 14 47 0
12 5 21 11 21 6 0 8 -11 5 -27z m101 -35 c-3 -7 -5 -2 -5 12 0 14 2 19 5 13 2
-7 2 -19 0 -25z m980 26 c-3 -3 -12 -4 -19 -1 -8 3 -5 6 6 6 11 1 17 -2 13 -5z
m9287 -55 c-3 -5 -1 -9 3 -9 5 0 17 -24 27 -52 10 -29 29 -76 42 -105 13 -28
24 -60 24 -70 0 -11 4 -23 8 -28 5 -6 15 -26 22 -45 7 -19 19 -48 25 -65 17
-41 38 -145 31 -152 -3 -3 -61 52 -128 122 -68 70 -129 134 -136 141 -7 8 -11
14 -7 14 4 0 -1 7 -9 16 -9 8 -16 23 -16 32 -1 9 -9 35 -19 56 -22 46 -20 57
14 73 20 9 25 8 25 -3 0 -27 18 -14 25 19 4 17 16 45 27 60 16 22 23 25 34 16
8 -6 11 -15 8 -20z m-5274 -43 c0 -16 -18 -31 -27 -22 -8 8 5 36 17 36 5 0 10
-6 10 -14z m-4608 -28 c-9 -9 -15 -9 -24 0 -9 9 -7 12 12 12 19 0 21 -3 12
-12z m-414 -134 c-6 -32 -25 -26 -20 6 3 21 8 28 14 22 6 -6 8 -18 6 -28z
m2565 -86 c14 -20 18 -21 26 -8 9 13 11 13 11 -2 0 -10 3 -18 8 -18 12 0 112
-96 112 -108 0 -6 9 -14 20 -17 22 -7 26 -20 10 -30 -16 -10 -12 -19 13 -30
27 -12 28 -34 2 -49 -11 -6 -31 -19 -44 -28 -13 -10 -31 -18 -40 -18 -9 0 -27
-10 -41 -23 -31 -29 -96 -32 -94 -4 2 20 -7 22 -24 5 -10 -10 -14 -8 -18 10
-4 12 -12 22 -19 22 -17 0 -45 55 -45 86 0 13 -5 26 -10 29 -6 4 -10 12 -9 18
1 7 -1 20 -6 30 -12 28 46 103 77 99 18 -2 20 0 8 8 -13 9 -12 13 9 30 30 25
35 25 54 -2z m-2552 -163 c2 -132 -9 -227 -25 -222 -6 2 -12 28 -13 58 -7 168
-7 299 -2 299 4 0 10 10 14 23 6 20 8 19 16 -13 4 -19 9 -84 10 -145z m8446
168 c-20 -2 -52 -2 -70 0 -17 2 0 4 38 4 39 0 53 -2 32 -4z m-357 -137 c6 -8
17 -13 25 -10 7 3 16 -3 19 -14 4 -11 18 -22 31 -25 23 -4 25 -1 25 29 0 40
15 45 24 9 4 -15 16 -27 31 -31 14 -3 25 -10 25 -15 0 -5 7 -9 15 -9 11 0 15
-11 15 -41 0 -22 -4 -38 -9 -35 -5 4 -12 0 -14 -6 -3 -7 -6 2 -6 20 -1 37 -18
42 -30 10 -6 -16 -4 -28 5 -39 8 -8 14 -21 14 -28 0 -19 -24 -8 -34 16 -6 13
-19 21 -34 21 -14 0 -29 7 -34 16 -5 9 -16 16 -24 16 -8 0 -17 6 -20 14 -9 24
-59 30 -88 10 -22 -14 -31 -15 -57 -4 -23 10 -33 10 -42 1 -9 -10 -8 -16 7
-27 11 -8 27 -12 37 -9 9 3 22 -1 29 -10 11 -13 5 -15 -44 -15 -37 0 -55 4
-51 10 4 6 1 18 -6 26 -9 11 -9 18 -1 26 22 22 12 30 -24 24 -37 -8 -64 5 -64
30 0 21 18 17 25 -7 5 -16 9 -18 21 -8 8 7 46 13 83 14 76 2 91 8 91 36 0 23
41 27 60 5z m-300 -36 c0 -5 -5 -10 -11 -10 -5 0 -7 5 -4 10 3 6 8 10 11 10 2
0 4 -4 4 -10z m-65 -40 c3 -5 1 -10 -4 -10 -6 0 -11 5 -11 10 0 6 2 10 4 10 3
0 8 -4 11 -10z m353 -42 c16 -16 15 -28 -3 -28 -8 0 -15 6 -15 14 0 8 -8 17
-17 19 -15 4 -14 5 3 6 11 0 25 -4 32 -11z m612 -13 c10 -12 10 -15 -4 -15 -9
0 -16 7 -16 15 0 8 2 15 4 15 2 0 9 -7 16 -15z m1790 -1 c0 -8 -4 -12 -10 -9
-5 3 -10 10 -10 16 0 5 5 9 10 9 6 0 10 -7 10 -16z m-2635 -32 c-3 -3 -11 0
-18 7 -9 10 -8 11 6 5 10 -3 15 -9 12 -12z m472 1 c-9 -9 -20 -13 -24 -9 -4 4
-1 11 7 16 25 16 35 11 17 -7z m-240 1 c-3 -3 -12 -4 -19 -1 -8 3 -5 6 6 6 11
1 17 -2 13 -5z m97 -33 c-1 -1 -12 3 -23 11 -12 8 -18 17 -15 21 6 5 43 -25
38 -32z m528 2 c23 -21 23 -46 -1 -67 -14 -13 -24 -14 -45 -7 -31 12 -35 41
-6 41 11 0 20 5 20 11 0 6 -9 9 -20 6 -26 -7 -47 18 -30 37 13 17 52 7 82 -21z
m-5869 16 c64 1 -4 -31 -160 -74 -79 -21 -83 -22 -83 -4 0 12 10 21 25 25 14
3 25 10 25 14 0 4 8 11 18 14 78 29 100 34 122 30 14 -3 38 -5 53 -5z m5516
-6 c1 10 6 15 11 12 8 -5 7 -11 -1 -21 -9 -11 -15 -11 -25 -3 -8 6 -11 16 -7
22 4 6 9 3 14 -9 7 -17 8 -17 8 -1z m-3392 -4 c-14 -8 -22 -8 -30 0 -8 8 -3
11 19 11 25 -1 27 -2 11 -11z m5403 1 c9 -5 34 -10 54 -12 20 -1 36 -6 36 -11
0 -4 4 -6 9 -2 11 6 22 -8 27 -38 12 -74 23 -187 28 -287 9 -154 15 -220 31
-315 23 -131 27 -146 39 -142 9 4 11 -11 8 -50 -2 -31 0 -58 6 -62 5 -3 12
-28 16 -56 5 -38 4 -46 -4 -35 -10 12 -11 10 -6 -10 3 -14 6 -33 6 -43 0 -10
5 -15 10 -12 7 4 8 -8 4 -36 -5 -27 -4 -40 3 -36 6 4 8 -12 5 -43 -3 -35 -1
-50 7 -50 7 0 9 -5 4 -12 -4 -7 -8 -67 -9 -134 -1 -67 -6 -143 -13 -170 -6
-27 -13 -85 -15 -129 -5 -95 -4 -88 -15 -81 -5 4 -7 -26 -4 -71 l6 -77 -25 16
-26 17 8 -32 c4 -18 6 -42 5 -52 -13 -126 -18 -146 -39 -157 -11 -6 -18 -8
-15 -4 4 4 -11 24 -32 45 -21 22 -35 42 -31 45 3 4 0 5 -8 2 -10 -4 -24 7 -40
31 -14 20 -25 40 -25 44 0 17 -15 21 -15 3 -1 -15 -4 -13 -16 9 -8 15 -12 32
-9 37 3 5 0 12 -5 15 -6 4 -15 17 -21 28 -5 12 -14 30 -21 39 -16 22 -5 32 21
19 13 -7 22 -8 26 -1 3 5 1 10 -4 10 -6 0 -11 18 -11 40 0 22 -3 40 -7 40 -5
0 -9 29 -9 65 -1 60 6 79 21 55 4 -6 11 -8 16 -5 13 8 0 57 -18 72 -9 7 -13
21 -10 33 3 11 0 20 -6 20 -7 0 -4 7 6 14 20 15 22 32 5 39 -7 3 -22 22 -33
43 -11 22 -25 42 -31 46 -15 10 -6 60 13 75 14 11 14 14 -1 29 -10 9 -15 23
-11 32 3 8 1 20 -3 26 -15 19 -21 95 -8 99 8 3 7 8 -2 20 -9 10 -14 47 -14
101 -1 48 -6 86 -11 86 -6 0 1 10 14 21 13 12 17 19 9 17 -8 -3 -24 2 -34 11
-11 9 -16 10 -12 4 4 -7 2 -13 -3 -13 -6 0 -11 6 -11 13 0 8 -3 7 -9 -3 -6 -8
-8 -17 -5 -22 6 -10 -50 -38 -76 -38 -23 0 -26 10 -8 28 9 9 9 12 -3 12 -7 1
-2 7 13 16 15 8 31 26 34 39 4 18 13 25 31 25 18 0 24 -4 19 -15 -7 -18 24
-21 42 -3 9 9 15 9 24 0 16 -16 38 -15 38 2 0 7 11 21 25 30 13 9 22 22 19 29
-3 8 2 20 11 27 8 7 15 19 15 26 0 8 5 14 10 14 6 0 10 6 10 14 0 7 11 25 25
40 28 30 32 44 13 43 -36 -1 -59 4 -54 12 3 5 16 7 29 4 l22 -6 -24 22 c-13
11 -28 21 -33 21 -4 0 -8 5 -8 10 0 6 9 10 20 10 12 0 20 7 20 16 0 10 -6 14
-15 10 -12 -4 -13 -2 -3 13 9 15 8 24 -6 45 -9 15 -14 30 -11 35 2 5 -3 12
-12 15 -13 5 -14 9 -5 15 10 6 8 13 -6 32 -10 13 -29 58 -41 99 -12 41 -27 83
-32 92 -10 19 -13 101 -4 110 10 9 106 8 125 -2z m-2072 -25 c-3 -3 -9 2 -12
12 -6 14 -5 15 5 6 7 -7 10 -15 7 -18z m-521 9 c-3 -3 -12 -4 -19 -1 -8 3 -5
6 6 6 11 1 17 -2 13 -5z m-4915 -56 c-9 -9 -15 -9 -24 0 -9 9 -7 12 12 12 19
0 21 -3 12 -12z m-62 -18 c-8 -5 -22 -10 -30 -10 -13 0 -13 1 0 10 8 5 22 10
30 10 13 0 13 -1 0 -10z m-3614 -267 c-18 -33 -21 -26 -6 13 6 15 13 24 16 21
3 -3 -1 -18 -10 -34z m11080 -108 c15 -11 16 -14 3 -15 -8 0 -24 7 -35 15 -15
11 -16 14 -3 15 8 0 24 -7 35 -15z m-303 -79 c3 -7 19 -16 36 -19 18 -4 29
-11 27 -19 -3 -7 -7 -26 -11 -43 l-7 -30 26 24 c31 29 35 15 6 -22 -11 -14
-20 -30 -20 -35 0 -5 -15 -15 -32 -22 -18 -6 -41 -16 -50 -21 -10 -5 -20 -9
-22 -9 -5 0 0 32 14 90 6 24 8 61 5 82 -5 30 -4 38 8 38 8 0 17 -6 20 -14z
m-313 -41 c27 -32 -15 -48 -44 -16 -13 15 -14 20 -4 24 23 9 35 7 48 -8z m550
-151 c0 -8 -5 -12 -10 -9 -6 4 -8 11 -5 16 9 14 15 11 15 -7z m-80 -8 c0 -3
-4 -8 -10 -11 -5 -3 -10 -1 -10 4 0 6 5 11 10 11 6 0 10 -2 10 -4z m-2552 -98
c-7 -19 -38 -22 -38 -4 0 10 9 16 21 16 12 0 19 -5 17 -12z m-8261 -150 c-3
-7 -5 -2 -5 12 0 14 2 19 5 13 2 -7 2 -19 0 -25z m5258 -208 c4 -6 -6 -10 -22
-10 -22 0 -25 2 -13 10 19 12 27 12 35 0z m-347 -10 c17 0 15 -17 -3 -23 -7
-3 -24 3 -37 14 l-23 21 25 -6 c14 -3 31 -6 38 -6z m1254 -125 c8 -16 30 -77
48 -135 34 -111 70 -190 128 -280 66 -103 85 -131 97 -138 23 -15 84 -99 113
-157 42 -83 121 -158 211 -203 68 -33 82 -37 159 -37 l85 0 24 -75 c12 -41 34
-131 48 -200 14 -69 35 -153 46 -187 18 -54 24 -63 44 -63 35 0 49 -34 47
-113 -1 -52 2 -69 13 -74 8 -3 15 -11 15 -17 0 -16 62 -86 77 -86 6 0 37 -52
68 -115 32 -63 60 -115 65 -115 8 0 35 -78 29 -84 -2 -2 -67 57 -145 132 -112
110 -149 153 -185 215 -36 65 -47 78 -65 74 -12 -2 -30 2 -40 10 -10 7 -12 13
-6 13 7 0 12 7 12 15 0 8 -6 12 -13 9 -7 -2 -21 4 -31 15 -18 20 -18 21 -1 27
17 7 16 8 -3 15 -12 5 -22 15 -22 23 0 9 -13 22 -30 31 -40 21 -44 19 -21 -12
25 -35 31 -75 12 -81 -8 -3 -11 0 -7 7 4 6 1 11 -8 11 -8 0 -24 15 -35 33 -44
72 -144 154 -245 202 -87 41 -192 72 -204 61 -2 -3 10 -12 27 -21 29 -14 171
-150 196 -186 42 -60 46 -69 31 -75 -18 -7 -47 11 -156 96 -337 264 -420 320
-604 410 -174 86 -207 112 -89 70 31 -11 58 -18 60 -16 3 3 -132 63 -179 79
-10 4 -15 12 -12 20 9 25 -19 37 -60 26 -70 -19 -58 1 49 83 100 77 218 309
213 418 -2 40 17 103 42 140 18 27 32 56 95 200 23 52 48 108 56 124 l13 28
12 -43 c6 -24 18 -57 26 -74z m-6024 -19 c55 -52 63 -66 35 -66 -39 1 -133
111 -133 154 1 19 3 18 23 -9 12 -16 46 -52 75 -79z m1217 44 c-3 -5 -17 -10
-31 -10 -14 0 -22 4 -19 10 3 6 17 10 31 10 14 0 22 -4 19 -10z m8594 -143
c15 -66 14 -96 -4 -113 -13 -14 -15 -13 -15 5 0 12 -4 21 -10 21 -5 0 -10 11
-10 25 0 16 -6 25 -15 25 -12 0 -13 4 -5 19 13 24 13 71 1 71 -6 0 -12 -12
-14 -27 -2 -16 -3 -9 -1 15 2 24 7 48 10 54 11 18 52 -44 63 -95z m164 -265
c15 -26 48 -78 72 -116 24 -38 49 -82 54 -98 10 -27 9 -28 -12 -16 -12 7 -30
11 -40 9 -9 -1 -20 4 -23 12 -3 8 -23 18 -45 21 -22 4 -38 10 -35 15 10 16
-37 21 -49 5 -9 -13 -13 -13 -28 4 -14 15 -15 25 -8 46 6 14 15 26 21 26 12 0
23 25 41 93 8 26 16 47 19 47 3 0 18 -21 33 -48z m-11747 13 c9 -8 11 -15 6
-15 -5 0 -15 7 -22 15 -7 8 -9 15 -6 15 4 0 14 -7 22 -15z m9614 -3 c0 -4 -9
-13 -21 -20 -16 -10 -24 -10 -35 -1 -7 6 -11 15 -8 20 6 11 64 12 64 1z m1658
-184 c-3 -7 -12 -14 -21 -16 -12 -2 -15 1 -11 12 7 19 38 22 32 4z m-9094 -54
c-27 -82 -45 -113 -104 -177 -31 -34 -99 -118 -150 -187 -110 -146 -207 -249
-391 -415 -140 -126 -267 -249 -309 -300 -125 -150 -263 -354 -385 -570 -16
-27 -31 -52 -35 -55 -4 -3 -19 -27 -35 -53 -43 -75 -41 -47 4 45 132 272 243
437 551 818 20 25 71 93 114 152 42 59 130 167 194 241 64 73 137 158 162 188
108 132 380 382 397 366 2 -2 -4 -26 -13 -53z m9016 36 c0 -12 -40 -34 -47
-26 -9 8 17 36 33 36 8 0 14 -4 14 -10z m-8452 -60 c10 0 23 5 30 12 8 8 12 9
12 1 0 -6 -6 -13 -12 -15 -12 -4 28 -44 90 -91 44 -33 47 -37 31 -37 -11 0
-127 69 -177 105 -2 2 -5 15 -7 31 -4 24 -3 26 5 12 6 -10 19 -18 28 -18z
m-2648 5 c12 -15 5 -39 -9 -30 -12 7 -21 45 -11 45 4 0 13 -7 20 -15z m1050
-69 c0 -2 -8 -10 -17 -17 -16 -13 -17 -12 -4 4 13 16 21 21 21 13z m11580 -66
c0 -11 -2 -20 -4 -20 -2 0 -6 9 -9 20 -3 11 -1 20 4 20 5 0 9 -9 9 -20z m56
-18 c14 -9 29 -66 14 -57 -5 3 -17 19 -25 36 -15 28 -11 36 11 21z m-31 -22
c3 -5 1 -10 -4 -10 -6 0 -11 5 -11 10 0 6 2 10 4 10 3 0 8 -4 11 -10z m-5537
-172 c23 -70 41 -310 20 -253 -6 17 -20 45 -30 63 -10 18 -18 43 -19 55 0 12
-3 16 -6 10 -10 -25 -29 -12 -61 40 -18 29 -32 58 -32 65 0 6 -9 16 -20 22
-24 13 -26 -2 -9 -47 6 -15 14 -47 18 -70 l8 -42 -116 41 c-101 35 -248 105
-239 113 2 2 60 8 129 15 70 6 165 20 210 29 131 28 124 30 147 -41z m-4870
12 c13 15 23 18 42 13 l25 -7 -25 -6 c-32 -8 -40 -46 -11 -55 24 -7 27 -37 6
-55 -13 -10 -15 -9 -15 9 0 18 -4 20 -26 15 -20 -5 -26 -2 -31 15 -7 27 -23
17 -23 -15 0 -13 -5 -24 -11 -24 -6 0 -8 7 -5 16 3 9 9 27 12 40 3 13 10 22
14 19 4 -3 11 10 15 28 7 28 9 29 12 9 4 -22 5 -22 21 -2z m-268 -40 c0 -11
-6 -20 -14 -20 -21 0 -31 21 -15 31 22 14 29 11 29 -11z m-37 -31 c3 -12 10
-18 16 -15 5 4 12 -2 15 -11 19 -68 42 -420 28 -439 -14 -20 -261 -204 -298
-221 -36 -17 -36 -17 -55 6 -11 14 -18 30 -15 38 3 7 0 13 -7 13 -7 0 -30 9
-51 21 -21 11 -43 18 -50 16 -6 -3 -21 -23 -34 -46 l-23 -41 33 0 c47 -1 94
-20 163 -67 l59 -41 103 79 c122 95 178 129 216 129 36 0 34 -18 -6 -66 -18
-21 -38 -52 -45 -69 -15 -40 -54 -206 -92 -395 -34 -169 -53 -250 -77 -321
-21 -65 -14 -110 18 -128 23 -13 30 -13 63 3 20 9 53 32 73 49 l36 32 -18 -35
c-10 -19 -26 -47 -36 -62 -25 -35 -24 -48 4 -49 18 -1 19 -2 3 -6 -17 -5 -16
-7 9 -29 l28 -24 -28 -10 c-15 -6 -32 -10 -39 -9 -6 1 -40 1 -76 0 l-65 -2 25
-20 c91 -73 113 -89 121 -89 5 0 9 -7 9 -16 0 -9 11 -27 25 -40 47 -44 26 -43
-291 6 -166 26 -345 70 -369 91 -5 5 -18 9 -30 9 -11 0 -30 6 -41 14 -11 8
-38 18 -60 22 l-39 8 34 7 c19 4 51 5 70 3 20 -2 27 -1 16 2 -11 3 -40 12 -65
20 -42 15 -45 14 -61 -7 -9 -12 -21 -19 -27 -15 -5 3 -90 22 -189 41 -98 19
-189 40 -203 46 l-25 11 30 16 c17 8 35 22 41 30 10 13 15 13 45 -2 18 -9 81
-26 139 -37 58 -10 139 -26 180 -34 41 -7 94 -17 118 -20 23 -4 42 -11 42 -17
0 -6 6 -8 13 -5 6 2 64 -4 127 -13 76 -12 119 -14 127 -8 14 11 44 8 148 -15
45 -11 73 -13 79 -7 7 7 3 10 -10 10 -11 0 -29 6 -39 14 -18 13 -17 15 20 21
22 4 54 10 70 14 l30 7 -24 13 c-12 7 -48 14 -80 16 -31 2 -75 7 -99 11 -35 5
-45 3 -56 -11 -7 -10 -18 -15 -24 -11 -17 10 -15 36 3 36 11 0 15 11 15 35 0
23 6 38 16 42 13 5 13 8 2 15 -8 6 2 8 32 7 47 -3 100 8 100 20 0 4 -8 18 -17
31 -13 19 -17 40 -15 85 6 106 6 108 -7 318 -1 9 -7 17 -15 17 -10 0 -17 -16
-21 -47 -3 -27 -7 -54 -8 -62 -1 -8 -8 -16 -15 -19 -10 -3 -12 18 -11 90 1
101 -7 132 -41 163 -24 21 -96 27 -108 9 -4 -6 -18 -15 -32 -19 -14 -4 -41
-18 -61 -31 -24 -15 -40 -19 -50 -13 -8 5 -18 9 -24 9 -5 0 -4 -4 4 -9 9 -6
10 -11 2 -15 -6 -4 -14 0 -17 8 -8 22 -18 20 -29 -6 -14 -32 -45 -36 -52 -7
-6 21 -7 21 -21 3 -13 -18 -14 -17 -8 9 8 35 -1 35 -15 0 -7 -18 -6 -30 1 -37
18 -18 10 -30 -9 -12 -12 11 -21 14 -26 7 -3 -6 0 -11 7 -12 9 0 10 -2 1 -5
-7 -3 -9 -13 -6 -22 4 -14 3 -15 -6 -2 -5 8 -13 11 -17 7 -4 -3 -1 -15 7 -24
13 -16 12 -17 -3 -5 -14 11 -18 10 -29 -10 -8 -13 -14 -25 -14 -28 -1 -3 -7
-18 -13 -33 -7 -16 -9 -34 -5 -40 4 -7 -2 -5 -12 3 -11 9 -16 10 -11 3 4 -7 4
-18 0 -24 -4 -8 -9 -8 -13 -1 -3 6 -11 0 -18 -14 -6 -13 -7 -24 -2 -24 5 0 9
-4 9 -10 0 -5 -7 -10 -15 -10 -8 0 -16 -6 -16 -12 -1 -7 -3 -20 -4 -28 -1 -8
-3 -21 -4 -27 0 -7 -5 -12 -9 -10 -13 3 -73 -64 -66 -74 3 -5 -2 -9 -10 -9 -9
0 -16 -4 -16 -10 0 -5 6 -7 14 -4 11 4 13 0 9 -15 -3 -12 -10 -21 -15 -21 -5
0 -6 -10 -3 -22 6 -19 5 -21 -6 -11 -7 7 -12 25 -12 40 0 33 81 183 164 303
32 47 87 131 122 187 35 57 66 100 69 98 3 -3 5 1 5 7 0 21 64 118 74 112 5
-3 9 2 9 10 0 9 5 16 10 16 6 0 10 5 10 10 0 13 36 69 118 184 35 48 99 141
142 205 43 64 104 141 136 173 74 70 197 178 205 178 4 0 9 -9 12 -21z m284
-72 c-15 -5 -27 -13 -27 -18 0 -11 13 -12 26 0 13 12 84 22 84 11 0 -5 -33
-42 -72 -83 -99 -102 -130 -141 -169 -217 l-34 -64 -5 49 c-7 71 3 206 15 203
6 -2 11 -16 11 -33 1 -16 5 -45 9 -63 6 -27 10 -30 22 -20 8 6 23 28 33 47 10
20 35 54 54 76 20 22 36 45 36 50 0 7 -3 7 -8 0 -4 -5 -18 -19 -31 -30 l-24
-20 11 20 c6 11 13 28 16 38 3 10 11 15 16 12 7 -4 9 2 4 19 -5 20 -2 26 10
26 9 0 16 4 16 10 0 5 8 6 17 3 14 -5 12 -8 -10 -16z m11123 -347 c0 -5 -5
-10 -11 -10 -5 0 -7 5 -4 10 3 6 8 10 11 10 2 0 4 -4 4 -10z m1227 -22 c27
-13 50 -25 53 -28 3 -3 19 -6 37 -5 29 0 39 -12 20 -26 -4 -3 6 -6 22 -6 17 0
28 4 25 9 -3 5 10 0 28 -11 19 -10 49 -22 68 -26 22 -5 28 -10 20 -15 -7 -5
-18 -7 -24 -6 -6 2 -8 1 -4 -1 4 -2 4 -12 0 -21 -5 -16 -5 -16 11 0 26 26 52
30 99 16 41 -11 41 -12 14 -16 -16 -2 -32 1 -36 7 -4 7 -11 2 -18 -14 -6 -14
-16 -25 -22 -25 -14 0 -12 17 3 23 6 2 9 8 5 12 -4 4 -14 2 -23 -5 -14 -12
-14 -15 1 -32 16 -17 18 -17 37 -1 18 17 19 17 16 -1 -3 -14 3 -22 21 -27 20
-5 21 -7 6 -8 -16 -1 -17 -4 -8 -13 15 -15 16 -32 1 -23 -5 4 -14 18 -19 31
-5 13 -15 24 -21 24 -8 0 -7 -5 2 -17 13 -15 12 -15 -8 -5 -12 7 -25 17 -28
22 -4 6 -24 22 -46 36 -23 14 -37 29 -33 36 4 6 3 8 -4 5 -5 -4 -17 -4 -26 -1
-13 5 -14 9 -5 20 7 8 9 17 5 21 -3 3 -6 1 -6 -6 0 -8 -6 -11 -16 -7 -9 4 -13
2 -8 -5 3 -6 -5 -3 -20 6 -14 9 -23 22 -20 27 4 6 1 8 -7 6 -12 -5 -149 58
-149 68 0 7 9 4 57 -18z m-187 2 c0 -5 -5 -10 -11 -10 -5 0 -7 5 -4 10 3 6 8
10 11 10 2 0 4 -4 4 -10z m-1213 -21 c-11 -7 -23 -7 -28 -2 -5 5 3 9 19 11 24
1 25 0 9 -9z m-11103 -33 c-10 -8 -23 -12 -27 -9 -5 3 2 11 15 17 29 16 38 10
12 -8z m11571 -46 c13 -6 15 -9 5 -9 -8 0 -22 4 -30 9 -18 12 -2 12 25 0z
m1066 -31 c19 -16 20 -18 4 -10 -34 17 -51 31 -39 31 7 0 22 -9 35 -21z m3
-28 c3 -5 -1 -12 -10 -15 -10 -4 -13 -2 -8 6 5 7 2 9 -7 6 -10 -4 -15 1 -15
12 0 14 4 16 18 9 9 -5 19 -13 22 -18z m67 -34 c-6 -6 -18 -3 -31 6 -15 10
-17 16 -8 19 18 7 50 -14 39 -25z m202 -14 c-6 -16 -3 -15 17 2 13 11 20 14
16 8 -4 -8 -1 -13 8 -13 8 0 17 -4 21 -10 3 -5 -10 -7 -32 -5 -21 2 -42 4 -47
4 -5 1 -3 8 4 16 16 20 21 19 13 -2z m-183 -34 c0 -6 -4 -7 -10 -4 -5 3 -10
11 -10 16 0 6 5 7 10 4 6 -3 10 -11 10 -16z m6 -23 c18 6 18 6 3 -11 -16 -16
-18 -16 -38 4 -26 26 -28 40 -2 17 11 -10 25 -14 37 -10z m202 17 c-10 -2 -28
-2 -40 0 -13 2 -5 4 17 4 22 1 32 -1 23 -4z m-283 -203 l30 -35 -32 29 c-18
17 -33 34 -33 40 0 5 1 7 3 5 1 -2 16 -20 32 -39z m0 -61 c28 -29 33 -38 17
-30 -13 7 -26 19 -29 26 -4 11 -10 12 -25 4 -17 -9 -18 -8 -9 9 6 11 7 22 4
26 -3 3 -4 6 -2 6 3 0 23 -19 44 -41z m-13159 16 c4 -9 -4 -23 -20 -36 -15
-12 -35 -37 -45 -57 -22 -44 -81 -241 -81 -271 0 -23 -12 -27 -105 -36 -151
-14 -172 -17 -208 -32 -20 -9 -40 -13 -44 -10 -3 4 6 24 21 44 15 21 63 88
107 150 89 126 170 205 244 239 58 28 123 32 131 9z m13239 -20 c19 -19 35
-33 35 -30 0 2 45 -42 100 -98 55 -56 100 -105 100 -109 0 -4 -30 23 -67 60
-38 37 -102 100 -143 140 -41 40 -71 72 -67 72 4 0 23 -16 42 -35z m-248 -27
c-3 -8 -6 -5 -6 6 -1 11 2 17 5 13 3 -3 4 -12 1 -19z m143 8 c0 -2 -7 -7 -16
-10 -8 -3 -12 -2 -9 4 6 10 25 14 25 6z m-5630 -63 c14 -53 25 -67 45 -59 17
6 17 5 1 -16 -9 -13 -22 -33 -28 -46 -8 -15 -18 -22 -30 -19 -11 3 -18 0 -18
-8 0 -8 7 -11 20 -8 17 5 19 0 18 -31 -1 -20 -2 -36 -3 -36 -1 0 -12 9 -24 19
-13 11 -28 22 -33 23 -7 3 -6 12 3 28 14 26 20 75 19 148 0 52 16 55 30 5z
m-1950 -13 c0 -5 -11 -10 -24 -10 -13 0 -33 -3 -43 -6 -10 -3 -7 2 7 10 29 18
60 21 60 6z m-5930 -65 c0 -1 -9 -10 -19 -19 -19 -17 -19 -17 -15 1 3 11 12
20 20 20 8 0 14 -1 14 -2z m7971 -69 c-9 -10 -8 -15 5 -20 23 -9 36 -7 29 4
-14 23 26 21 44 -1 19 -24 19 -24 -2 -48 -12 -13 -53 -47 -92 -77 -38 -29 -90
-71 -115 -94 -67 -60 -89 -51 -73 31 7 38 16 48 69 83 33 23 69 46 80 52 10 6
21 25 25 42 7 37 31 70 37 53 2 -7 -1 -18 -7 -25z m-8047 -21 c-4 -8 -11 -15
-16 -15 -6 0 -5 6 2 15 7 8 14 15 16 15 2 0 1 -7 -2 -15z m530 0 c-4 -8 -8
-15 -10 -15 -2 0 -4 7 -4 15 0 8 4 15 10 15 5 0 7 -7 4 -15z m-569 -5 c3 -5 1
-10 -4 -10 -6 0 -11 5 -11 10 0 6 2 10 4 10 3 0 8 -4 11 -10z m-15 -32 c0 -6
-6 -5 -15 2 -8 7 -15 14 -15 16 0 2 7 1 15 -2 8 -4 15 -11 15 -16z m7843 -18
c3 -11 20 -26 37 -34 31 -13 31 -13 9 -19 -27 -7 -69 26 -69 55 0 24 16 23 23
-2z m445 -67 c2 -12 11 -24 20 -27 19 -6 46 -81 36 -98 -4 -5 0 -14 7 -19 8
-4 15 -19 16 -31 3 -26 27 -147 38 -193 12 -46 -6 -22 -26 36 -32 90 -53 128
-79 139 -33 14 -100 78 -100 95 0 8 18 24 39 35 50 25 57 36 31 52 -25 16 -27
41 -2 36 9 -2 18 -13 20 -25z m-6973 -93 c8 -13 -120 -145 -156 -160 -16 -7
-32 -10 -36 -7 -8 9 157 177 173 177 7 0 15 -4 19 -10z m-1772 -35 c-9 -19
-18 -33 -21 -31 -4 5 26 66 33 66 3 0 -3 -16 -12 -35z m13215 12 c2 -9 -1 -17
-7 -17 -6 0 -11 7 -11 16 0 9 -5 12 -12 8 -7 -4 -8 -3 -4 5 10 16 30 9 34 -12z
m-12960 -62 c-3 -3 -9 2 -12 12 -6 14 -5 15 5 6 7 -7 10 -15 7 -18z m-276 -50
c4 -17 1 -25 -9 -25 -17 0 -27 25 -19 46 8 21 22 10 28 -21z m7585 20 c23 -6
88 -74 79 -82 -2 -3 -42 5 -87 16 -46 12 -91 21 -101 21 -11 0 -16 5 -12 11
11 19 68 49 84 45 8 -3 25 -7 37 -11z m-6597 -31 c0 -19 -7 -26 -30 -30 -16
-4 -30 -10 -30 -15 0 -5 -8 -9 -19 -9 -14 0 -18 6 -15 29 2 21 -1 28 -13 27
-22 -1 -28 21 -7 26 9 1 39 1 65 0 44 -4 49 -6 49 -28z m12247 -166 c-2 -13
-4 -3 -4 22 0 25 2 35 4 23 2 -13 2 -33 0 -45z m433 32 c13 -9 13 -11 0 -20
-8 -5 -17 -10 -20 -10 -3 0 -12 5 -20 10 -13 9 -13 11 0 20 8 5 17 10 20 10 3
0 12 -5 20 -10z m-407 -131 c17 -1 15 -3 -8 -9 -24 -6 -26 -8 -7 -9 12 0 22
-5 22 -11 0 -5 12 -10 28 -10 23 0 18 -4 -27 -25 -55 -26 -73 -26 -52 -1 9 11
9 15 -1 20 -7 3 1 3 17 0 29 -6 29 -5 10 9 -17 12 -19 23 -15 63 4 47 5 48 8
12 3 -31 7 -38 25 -39z m-4843 25 c156 -23 311 -76 310 -107 -1 -6 -10 -23
-21 -36 l-20 -25 -55 28 c-30 15 -52 31 -50 35 11 17 -193 79 -331 101 -46 8
-83 18 -83 23 0 10 109 2 250 -19z m509 -55 c11 -41 24 -107 30 -148 7 -41 14
-77 16 -82 3 -4 -4 -36 -15 -71 -26 -82 -25 -108 6 -220 17 -63 28 -137 34
-228 5 -74 14 -153 21 -175 l12 -40 8 40 c22 105 47 144 68 107 21 -34 12 27
-10 71 -25 51 -70 189 -64 196 3 2 5 -1 5 -7 0 -6 7 -9 15 -5 11 4 66 -46 179
-161 90 -91 168 -166 174 -166 6 0 28 -17 51 -39 22 -21 62 -52 88 -69 26 -18
53 -36 60 -42 7 -5 15 -10 19 -10 3 0 34 -13 68 -29 33 -15 70 -31 81 -35 16
-6 17 -9 5 -17 -10 -6 -4 -7 20 -3 l35 5 -27 -16 c-33 -19 -35 -25 -7 -25 11
0 17 5 14 10 -3 6 3 10 15 10 20 0 20 -1 5 -16 -25 -25 -116 -13 -192 25 -34
17 -66 31 -71 31 -5 0 -15 7 -22 15 -7 8 -22 15 -34 15 -21 -1 -21 -1 -1 -16
14 -11 17 -17 8 -22 -8 -5 6 -33 47 -91 33 -46 60 -87 60 -92 0 -5 -12 -15
-27 -21 -16 -7 -36 -18 -45 -26 -10 -8 -37 -15 -60 -16 -27 0 -50 -7 -63 -19
-20 -19 -20 -19 11 -13 23 5 33 3 37 -8 5 -13 -2 -14 -38 -11 -25 3 -45 3 -45
0 0 -2 17 -16 37 -30 52 -34 30 -31 -56 8 -56 26 -68 36 -59 45 8 8 0 7 -18
-2 -28 -14 -36 -14 -83 0 -29 8 -60 13 -68 10 -10 -4 -17 1 -20 15 -4 16 -8
17 -14 7 -6 -9 -9 -5 -9 14 0 15 -4 30 -10 33 -5 3 -10 17 -10 30 0 12 -7 25
-15 29 -8 3 -22 21 -32 40 -77 152 -105 209 -127 261 l-25 60 -2 -125 c-1 -69
-3 -181 -5 -250 -2 -69 -4 -129 -4 -135 -1 -68 11 -209 19 -224 8 -14 8 -21
-2 -24 -7 -2 1 -15 21 -32 21 -17 31 -33 27 -43 -7 -18 3 -52 16 -52 5 0 9 7
9 16 0 35 24 95 36 90 14 -5 24 35 24 98 1 47 38 185 40 146 l1 -25 13 24 13
23 6 -22 c3 -12 10 -19 17 -15 13 8 65 -9 158 -52 81 -38 90 -53 18 -29 -26 9
-55 16 -66 16 -10 0 -20 5 -22 12 -8 24 -26 -4 -32 -50 -3 -26 -13 -105 -21
-177 -9 -71 -20 -140 -25 -153 -7 -16 -7 -21 0 -17 15 9 12 -8 -6 -34 -12 -17
-14 -28 -6 -45 12 -28 -2 -56 -28 -56 -13 0 -17 -5 -14 -15 3 -8 -1 -28 -10
-45 -8 -17 -14 -36 -12 -43 1 -7 1 -9 -1 -4 -3 4 -11 7 -18 7 -7 0 -15 7 -19
15 -3 9 -21 25 -41 36 -19 12 -35 27 -35 34 0 8 -11 22 -25 33 -20 16 -23 26
-20 58 4 35 4 36 -4 8 -10 -41 -19 -54 -36 -54 -16 0 -28 27 -13 32 8 3 7 10
-1 26 -12 23 -31 30 -31 11 0 -8 -5 -8 -15 1 -8 7 -15 19 -15 26 0 8 -7 14
-16 14 -13 0 -14 -3 -4 -15 6 -8 10 -20 7 -27 -2 -7 -14 9 -27 37 -16 35 -20
53 -12 65 7 11 4 23 -10 43 -11 16 -17 31 -14 35 4 3 11 0 16 -8 6 -9 10 -10
10 -3 0 22 -12 43 -26 43 -8 0 -14 8 -14 18 0 10 -9 28 -20 40 -24 25 -25 32
-5 32 22 0 18 18 -7 31 -18 10 -19 14 -8 17 8 3 20 11 28 18 10 11 9 15 -8 24
-16 8 -18 15 -11 29 14 26 3 325 -15 388 -17 61 -18 166 -3 196 7 12 29 41 50
64 22 23 55 68 75 99 20 31 60 88 90 126 53 69 71 104 60 116 -16 16 -376
-100 -425 -137 -28 -21 -41 -127 -41 -332 0 -209 -49 -689 -70 -689 -16 0 -20
71 -21 364 -1 165 -4 344 -8 396 l-6 95 -19 -137 c-10 -76 -22 -138 -25 -138
-4 0 -7 9 -7 20 2 32 -18 23 -27 -12 -9 -35 -13 -67 -15 -132 -3 -56 -10 -41
-17 34 -4 36 -8 81 -10 100 -9 81 -18 121 -29 117 -18 -6 -24 -54 -25 -224 -1
-163 -13 -221 -24 -115 -4 31 -9 121 -13 200 -4 79 -10 140 -14 135 -10 -12
-30 -206 -31 -303 0 -47 -4 -93 -8 -103 -6 -15 -9 -12 -24 18 -9 19 -24 38
-33 42 -23 8 -200 -29 -404 -87 -19 -5 -96 -26 -170 -46 -74 -19 -187 -53
-251 -75 -103 -35 -150 -41 -149 -20 0 3 85 85 188 181 103 96 252 239 332
317 192 189 230 217 465 353 61 34 146 86 190 115 44 29 101 60 127 70 26 9
49 23 52 31 3 8 13 14 23 13 16 0 16 -1 -2 -9 -18 -8 -17 -9 7 -9 27 -1 69 32
81 63 4 9 18 16 32 16 15 0 25 6 25 14 0 17 87 10 110 -9 24 -20 43 -23 65
-12 32 18 75 15 75 -5 0 -9 5 -20 10 -23 21 -13 9 61 -16 98 -29 43 -38 114
-14 109 11 -3 10 1 -3 16 -16 18 -16 20 0 53 16 31 18 32 21 12 2 -13 8 -23
13 -23 6 0 8 8 5 18 -4 12 1 26 14 37 11 10 20 25 20 34 0 9 9 34 21 55 16 30
19 48 14 80 -11 63 3 38 24 -45z m1551 50 c0 -6 -4 -7 -10 -4 -5 3 -10 11 -10
16 0 6 5 7 10 4 6 -3 10 -11 10 -16z m2034 -6 c-4 -16 -12 -35 -19 -43 -6 -8
-11 -30 -9 -48 1 -28 0 -31 -14 -20 -13 11 -14 10 -8 -9 5 -16 0 -26 -20 -42
-14 -11 -30 -18 -35 -15 -5 3 -7 -1 -4 -8 3 -7 0 -20 -5 -28 -9 -13 -11 -13
-21 0 -8 12 -9 11 -5 -6 5 -15 0 -24 -19 -34 -13 -7 -27 -22 -31 -32 -4 -13
-11 -17 -25 -13 -22 7 -25 -5 -6 -24 10 -11 9 -13 -5 -8 -12 4 -26 -4 -45 -28
-16 -19 -33 -35 -40 -35 -7 0 -31 -10 -53 -21 -35 -18 -39 -24 -28 -37 11 -13
10 -15 -9 -9 -13 4 -33 10 -45 14 -21 6 -22 5 -9 -11 13 -15 12 -18 -7 -23
-24 -6 -29 -19 -9 -26 6 -3 0 -6 -15 -6 -20 -1 -28 -6 -28 -18 0 -16 2 -16 11
-3 9 13 10 13 6 0 -2 -8 -13 -16 -25 -18 -12 -2 -19 -8 -16 -14 4 -6 -1 -8
-13 -4 -15 5 -23 0 -31 -18 -10 -23 -48 -46 -99 -61 -13 -3 -23 -11 -23 -16 0
-6 -9 -7 -22 -4 -16 6 -20 4 -15 -8 4 -12 2 -14 -10 -10 -10 4 -14 2 -10 -4 4
-6 -7 -16 -23 -23 -17 -7 -30 -17 -30 -23 0 -5 -8 0 -19 11 -10 12 -25 22 -32
22 -9 1 -7 6 7 18 11 10 19 22 17 27 -1 6 30 27 70 47 39 21 112 60 161 88 48
28 95 49 103 46 8 -3 12 -2 8 3 -3 5 8 19 23 30 23 16 32 18 42 8 10 -10 12
-9 7 5 -5 13 1 17 26 20 18 2 32 9 32 16 0 15 44 51 63 52 7 0 10 5 7 10 -3 6
-3 10 2 10 4 0 27 18 51 40 23 22 48 37 56 34 8 -3 17 -1 21 5 4 7 -1 8 -12 4
-17 -6 -13 0 67 87 29 32 97 136 105 161 10 29 16 23 9 -8z m-8797 -9 c-3 -3
-12 -4 -19 -1 -8 3 -5 6 6 6 11 1 17 -2 13 -5z m9893 -4 c0 -5 -7 -10 -16 -10
-8 0 -12 5 -9 10 3 6 10 10 16 10 5 0 9 -4 9 -10z m637 -16 c-3 -3 -12 -4 -19
-1 -8 3 -5 6 6 6 11 1 17 -2 13 -5z m-13215 -84 c-3 -37 -36 -110 -56 -122
-25 -17 -56 -8 -66 18 -18 47 -12 75 26 111 28 26 44 33 68 31 29 -3 31 -5 28
-38z m12905 4 c-3 -3 -12 -4 -19 -1 -8 3 -5 6 6 6 11 1 17 -2 13 -5z m-634
-158 c-10 -7 -42 -23 -72 -35 -65 -28 -111 -60 -111 -78 0 -7 -5 -13 -11 -13
-6 0 -8 -8 -4 -20 3 -10 0 -30 -7 -42 -7 -13 -13 -27 -14 -33 -4 -44 -18 -106
-25 -111 -5 -3 -9 -33 -10 -67 0 -49 -2 -57 -10 -38 -8 19 -12 21 -24 11 -13
-11 -15 -6 -17 36 -3 85 2 159 12 162 6 2 10 17 10 33 0 17 6 32 15 35 8 4 15
10 15 15 0 4 -8 5 -17 2 -15 -6 -16 -5 -3 9 9 9 19 12 25 8 7 -6 15 -2 22 9
10 16 9 18 -8 14 -10 -3 -19 0 -19 6 0 6 11 13 25 17 14 3 25 9 25 13 0 7 9
11 125 59 69 28 116 33 78 8z m-7806 -18 c-3 -8 -6 -5 -6 6 -1 11 2 17 5 13 3
-3 4 -12 1 -19z m2528 -98 c3 -5 -3 -10 -14 -10 -12 0 -21 5 -21 10 0 6 6 10
14 10 8 0 18 -4 21 -10z m-3350 -230 c3 -5 -1 -10 -9 -10 -9 0 -16 5 -16 10 0
6 4 10 9 10 6 0 13 -4 16 -10z m6983 -51 c-2 -6 -22 -17 -43 -25 -61 -21 -65
-16 -10 10 60 29 58 29 53 15z m-33 -49 c-3 -5 -13 -10 -21 -10 -8 0 -12 5 -9
10 3 6 13 10 21 10 8 0 12 -4 9 -10z m-48 -16 c-3 -3 -12 -4 -19 -1 -8 3 -5 6
6 6 11 1 17 -2 13 -5z m91 -2 c20 -13 -133 -76 -355 -145 -61 -19 -103 -37
-103 -45 0 -18 -54 -39 -189 -73 -62 -16 -118 -32 -122 -35 -5 -3 -9 -1 -9 5
0 5 9 13 20 16 11 4 17 11 14 17 -5 7 2 9 19 6 26 -5 35 5 52 57 5 15 8 17 15
6 7 -12 15 -12 42 -3 l33 11 -32 -5 c-18 -3 -33 -3 -33 1 0 6 45 27 88 39 18
6 22 3 22 -13 0 -13 -6 -21 -17 -21 -9 0 -14 -3 -10 -6 9 -9 77 5 77 16 0 6
-8 10 -17 11 -10 0 -5 5 11 9 18 6 36 5 48 -1 11 -6 22 -8 26 -5 11 12 -9 19
-54 19 -42 0 -44 1 -23 13 13 6 39 10 59 8 19 -2 29 -1 22 2 -10 4 -4 12 17
25 32 19 59 27 31 9 -9 -6 -10 -10 -3 -10 6 0 19 -3 29 -7 12 -4 15 -3 10 5
-4 7 -1 12 6 13 7 0 4 5 -7 10 -18 9 -18 9 4 5 12 -3 33 -1 45 4 11 5 30 11
41 15 16 5 17 8 5 16 -15 10 61 5 103 -7 9 -3 17 -1 17 5 0 6 12 11 26 11 14
0 23 4 19 9 -9 16 51 26 73 13z m2202 -17 c0 -8 -4 -15 -10 -15 -5 0 -10 7
-10 15 0 8 5 15 10 15 6 0 10 -7 10 -15z m-13059 -53 c-19 -15 -57 -41 -84
-57 -28 -17 -58 -44 -68 -60 -9 -17 -61 -75 -114 -130 -57 -59 -115 -131 -141
-175 l-44 -75 6 82 c7 80 6 82 -21 107 -15 14 -34 26 -41 26 -27 0 -13 17 56
69 68 52 170 154 201 201 l15 24 27 -20 c14 -10 27 -25 27 -32 0 -17 25 -10
115 33 85 41 112 43 66 7z m8519 8 c0 -5 -4 -10 -10 -10 -5 0 -10 5 -10 10 0
6 5 10 10 10 6 0 10 -4 10 -10z m70 -10 c0 -5 -7 -10 -15 -10 -8 0 -15 5 -15
10 0 6 7 10 15 10 8 0 15 -4 15 -10z m1970 -110 c0 -5 -19 -9 -42 -9 -40 1
-41 2 -13 9 44 11 55 11 55 0z m240 -100 l0 -90 -80 0 c-64 0 -80 -3 -80 -15
0 -9 9 -15 25 -15 30 0 32 -11 4 -36 -17 -15 -22 -16 -29 -4 -7 12 -12 11 -30
-5 -11 -10 -18 -25 -16 -32 4 -9 -4 -13 -27 -12 -18 0 -26 3 -19 6 6 2 12 11
12 19 0 10 -12 14 -39 14 -22 0 -42 6 -45 13 -3 6 -3 0 0 -15 6 -26 4 -28 -24
-28 -38 0 -50 -17 -26 -35 21 -15 27 -15 -128 -14 -46 0 -58 -3 -58 -15 0 -10
-9 -16 -25 -16 -23 0 -25 4 -25 45 0 31 -5 47 -17 54 -26 14 -12 21 51 30 31
4 62 13 68 19 7 7 20 12 30 12 10 0 18 6 18 13 0 15 54 49 63 40 4 -3 18 2 31
11 16 10 46 16 79 16 53 0 54 1 49 26 -5 26 -4 26 37 19 27 -4 41 -3 41 4 0 6
-4 11 -10 11 -5 0 -10 7 -10 16 0 22 39 8 63 -22 24 -31 37 -30 37 1 0 14 5
25 11 25 6 0 20 11 31 25 11 14 24 25 29 25 5 0 9 -40 9 -90z m-640 61 c0 -5
-14 -14 -31 -20 -39 -14 -49 -14 -49 -1 0 6 9 10 20 10 11 0 20 5 20 10 0 6 9
10 20 10 11 0 20 -4 20 -9z m-3480 -31 c12 -8 9 -10 -13 -10 -16 0 -26 4 -22
10 8 12 16 12 35 0z m3347 -46 c-3 -3 -12 -4 -19 -1 -8 3 -5 6 6 6 11 1 17 -2
13 -5z m-60 -20 c-3 -3 -12 -4 -19 -1 -8 3 -5 6 6 6 11 1 17 -2 13 -5z m-40
-10 c-3 -3 -12 -4 -19 -1 -8 3 -5 6 6 6 11 1 17 -2 13 -5z m838 -84 c-28 -12
-45 -12 -45 0 0 6 15 10 33 9 27 0 29 -2 12 -9z m-617 -67 c-10 -2 -26 -2 -35
0 -10 3 -2 5 17 5 19 0 27 -2 18 -5z m616 -13 c18 -6 34 -6 50 2 14 6 37 7 53
3 29 -7 -6 -24 -287 -135 -47 -18 -90 -37 -97 -42 -7 -6 -20 -5 -32 2 -29 15
-26 20 7 14 29 -5 62 10 48 23 -5 4 -11 2 -13 -4 -5 -14 -33 -18 -33 -5 0 11
59 42 78 41 14 0 13 -2 -3 -9 -18 -8 -17 -9 8 -9 16 -1 26 4 25 11 -2 6 6 13
17 15 16 3 17 2 5 -6 -13 -9 -13 -11 2 -11 9 0 24 10 32 22 9 12 16 17 16 10
0 -6 5 -12 11 -12 5 0 7 5 4 10 -8 12 43 33 62 26 9 -4 11 -1 7 5 -9 15 16 30
39 23 28 -9 19 11 -10 23 -16 6 -25 11 -21 12 4 1 18 -3 32 -9z m619 -47 c-7
-2 -21 -2 -30 0 -10 3 -4 5 12 5 17 0 24 -2 18 -5z m7 -23 c0 -5 -7 -10 -15
-10 -8 0 -15 5 -15 10 0 6 7 10 15 10 8 0 15 -4 15 -10z m-961 -107 c21 -5 20
-7 -15 -20 -22 -7 -83 -25 -137 -39 -54 -14 -129 -36 -167 -50 -38 -13 -80
-24 -92 -24 -19 0 -20 -2 -8 -10 12 -8 11 -10 -7 -10 -14 0 -23 -6 -23 -15 0
-9 -11 -20 -25 -25 -15 -6 -25 -17 -25 -30 0 -11 -7 -20 -15 -20 -8 0 -15 -7
-15 -15 0 -9 -7 -18 -15 -21 -8 -4 -13 -10 -10 -14 6 -10 -14 -25 -22 -16 -3
3 2 17 11 31 9 14 15 29 12 34 -3 4 4 17 14 29 11 12 20 26 20 32 0 5 7 10 15
10 19 0 42 40 23 40 -18 1 33 29 53 30 9 0 36 10 60 23 116 60 296 100 368 80z
m-1734 -133 c3 -5 2 -10 -4 -10 -5 0 -13 5 -16 10 -3 6 -2 10 4 10 5 0 13 -4
16 -10z m2932 4 c-3 -3 -12 -4 -19 -1 -8 3 -5 6 6 6 11 1 17 -2 13 -5z m-1707
-14 c0 -5 -6 -10 -12 -10 -7 0 -23 -3 -35 -6 -13 -4 -23 -2 -23 4 0 9 20 17
58 21 6 0 12 -3 12 -9z m-3070 -34 c0 -9 -34 -26 -87 -46 -130 -47 -136 -47
-149 -12 -6 17 -8 36 -4 42 8 13 94 26 188 29 39 1 52 -3 52 -13z m2855 -16
c-3 -5 -11 -10 -16 -10 -6 0 -7 5 -4 10 3 6 11 10 16 10 6 0 7 -4 4 -10z
m-5598 -27 c9 -16 27 -39 39 -53 l23 -25 -74 -80 c-41 -44 -77 -77 -80 -73 -4
3 -2 22 3 41 6 22 6 39 1 44 -12 12 14 116 36 150 20 30 31 29 52 -4z m2780
-25 c-3 -7 -5 -2 -5 12 0 14 2 19 5 13 2 -7 2 -19 0 -25z m-6027 -34 c0 -18
-11 -18 -36 1 -16 12 -17 16 -4 24 17 11 40 -3 40 -25z m5370 32 c0 -6 -113
-73 -170 -100 l-55 -27 37 34 c59 53 188 117 188 93z m645 -43 c-13 -56 -38
-99 -70 -123 -18 -14 -31 -29 -27 -34 3 -5 0 -6 -7 -2 -6 4 -18 3 -25 -3 -34
-29 -266 -55 -266 -31 0 6 26 10 58 10 158 1 285 69 323 175 15 42 24 46 14 8z
m2035 -9 c50 -14 89 -34 65 -34 -17 0 -136 40 -153 51 -19 12 -14 10 88 -17z
m-1533 -31 c-3 -10 -5 -4 -5 12 0 17 2 24 5 18 2 -7 2 -21 0 -30z m2463 -3 c0
-5 -8 -10 -17 -10 -15 0 -16 2 -3 10 19 12 20 12 20 0z m-803 -6 c-3 -3 -12
-4 -19 -1 -8 3 -5 6 6 6 11 1 17 -2 13 -5z m-3247 -223 c-36 -33 -66 -58 -68
-57 -10 10 19 43 67 76 31 21 58 39 61 39 3 0 -24 -26 -60 -58z m2105 -31 c4
-6 1 -18 -6 -26 -11 -14 -13 -14 -21 0 -15 26 12 51 27 26z m-930 -210 c-3 -5
-11 -10 -16 -10 -6 0 -7 5 -4 10 3 6 11 10 16 10 6 0 7 -4 4 -10z m-6301 -25
c18 -27 21 -89 6 -108 -6 -7 -18 -23 -28 -36 -25 -33 -48 -22 -62 29 -12 46
-3 89 27 122 22 24 38 23 57 -7z m6147 1 c27 -2 52 -5 55 -8 3 -3 21 -2 40 2
20 5 34 4 34 -2 0 -5 9 -7 19 -3 23 7 39 -13 16 -21 -8 -4 -48 -1 -88 5 -39 6
-87 14 -106 17 -18 2 -41 9 -50 15 -13 8 -11 9 7 4 13 -4 46 -8 73 -9z m385
-12 c-6 -30 -16 -45 -16 -23 0 11 -2 11 -10 -1 -8 -12 -10 -11 -10 7 0 12 8
27 18 32 23 14 23 14 18 -15z m1061 -19 c-15 -16 -19 -13 -11 9 3 9 10 13 15
10 5 -3 3 -11 -4 -19z m-1857 -25 c0 -5 -6 -10 -14 -10 -8 0 -18 5 -21 10 -3
6 3 10 14 10 12 0 21 -4 21 -10z m108 -12 c9 -9 15 -9 24 0 16 16 28 15 28 -3
0 -19 16 -20 23 -1 6 15 32 15 157 0 30 -4 73 -7 95 -6 38 1 39 0 10 -8 -29
-8 -29 -8 10 -9 74 -2 133 -9 144 -15 23 -15 9 -27 -26 -24 -29 2 -38 -1 -38
-12 0 -12 12 -15 53 -13 28 1 52 -2 52 -7 0 -6 9 -10 20 -10 39 0 19 -16 -22
-18 -64 -3 -190 15 -413 60 -110 23 -218 44 -240 48 l-40 7 50 2 c28 2 59 6
70 11 27 12 29 12 43 -2z m1782 -3 c0 -8 -2 -15 -4 -15 -2 0 -6 7 -10 15 -3 8
-1 15 4 15 6 0 10 -7 10 -15z m-7276 -57 c-16 -27 -133 -174 -153 -192 -36
-33 -25 5 16 55 39 48 135 149 141 149 2 0 0 -6 -4 -12z m9282 -136 c-7 -7
-56 18 -56 29 0 4 14 1 31 -8 16 -8 28 -18 25 -21z m-9776 19 c0 -5 -8 -19
-18 -31 -15 -19 -20 -20 -42 -8 -38 20 -27 43 20 45 22 1 40 -2 40 -6z m8625
-91 c3 -5 -1 -10 -9 -10 -9 0 -16 5 -16 10 0 6 4 10 9 10 6 0 13 -4 16 -10z
m-650 -70 c3 -5 1 -10 -4 -10 -6 0 -11 5 -11 10 0 6 2 10 4 10 3 0 8 -4 11
-10z m-1018 -52 c-3 -7 -5 -2 -5 12 0 14 2 19 5 13 2 -7 2 -19 0 -25z m-20
-40 c-3 -8 -6 -5 -6 6 -1 11 2 17 5 13 3 -3 4 -12 1 -19z m1153 -49 c0 -28 4
-39 15 -39 10 0 15 10 15 30 0 20 5 30 15 30 8 0 15 -4 15 -10 0 -5 9 -10 19
-10 11 0 33 -8 50 -17 27 -16 31 -24 31 -60 0 -24 -5 -43 -12 -46 -9 -3 -6
-12 10 -28 19 -20 24 -22 32 -9 7 12 12 11 29 -4 16 -15 21 -31 21 -72 0 -32
5 -54 13 -57 6 -3 -60 -5 -148 -6 -110 0 -153 3 -137 10 13 5 28 7 32 4 5 -3
21 -3 35 1 21 5 25 12 25 45 0 28 -4 39 -15 39 -11 0 -15 -11 -15 -40 0 -29
-4 -40 -15 -40 -12 0 -15 16 -15 80 0 47 -4 80 -10 80 -6 0 -10 35 -10 86 0
54 4 83 10 79 6 -3 10 -24 10 -46z m-1143 -41 c-2 -13 -4 -5 -4 17 -1 22 1 32
4 23 2 -10 2 -28 0 -40z m-930 -28 c74 -33 195 -176 205 -241 l3 -24 -314 -3
-314 -2 30 32 c131 143 199 207 245 231 61 32 88 33 145 7z m920 -22 c-3 -8
-6 -5 -6 6 -1 11 2 17 5 13 3 -3 4 -12 1 -19z m5150 -20 c-3 -7 -5 -2 -5 12 0
14 2 19 5 13 2 -7 2 -19 0 -25z m-5191 -85 c-11 -11 -17 4 -9 23 7 18 8 18 11
1 2 -10 1 -21 -2 -24z m-1914 -19 c-12 -8 -41 -15 -64 -16 -24 0 -54 -4 -68
-9 -15 -5 -37 -5 -55 1 -28 9 -27 9 10 5 29 -4 36 -3 25 4 -15 11 -12 11 77
16 12 0 25 4 29 8 4 4 21 7 38 7 30 0 30 0 8 -16z m6094 -21 c-10 -10 -19 5
-10 18 6 11 8 11 12 0 2 -7 1 -15 -2 -18z m-4206 3 c0 -3 -4 -8 -10 -11 -5 -3
-10 -1 -10 4 0 6 5 11 10 11 6 0 10 -2 10 -4z m54 -27 c-3 -5 -10 -6 -16 -3
-8 5 -9 1 -5 -10 4 -10 -1 -24 -13 -36 -23 -23 -40 -26 -40 -7 1 20 54 75 67
70 7 -3 10 -9 7 -14z m1486 1 c0 -5 0 -13 0 -17 -1 -7 -41 -5 -49 2 -1 2 0 8
4 14 8 14 45 14 45 1z m-2010 -46 c0 -8 -4 -12 -10 -9 -5 3 -10 10 -10 16 0 5
5 9 10 9 6 0 10 -7 10 -16z m1990 -2 l-35 -5 30 -6 c26 -5 -205 -4 -310 1 -32
2 202 12 320 14 26 1 25 0 -5 -4z m1518 -9 c-21 -2 -55 -2 -75 0 -21 2 -4 4
37 4 41 0 58 -2 38 -4z"/>
<path d="M9462 9718 c-6 -14 -16 -55 -22 -90 -6 -34 -13 -72 -16 -83 -5 -20
-5 -20 10 -1 9 11 16 29 16 41 0 11 7 47 15 80 17 62 14 97 -3 53z"/>
<path d="M9400 9444 c0 -8 5 -12 10 -9 6 4 8 11 5 16 -9 14 -15 11 -15 -7z"/>
<path d="M13370 9020 c0 -5 5 -10 11 -10 6 0 8 -9 4 -20 -4 -14 -2 -20 9 -20
23 0 27 14 10 38 -16 23 -34 29 -34 12z"/>
<path d="M12680 7830 c0 -5 5 -10 10 -10 6 0 10 5 10 10 0 6 -4 10 -10 10 -5
0 -10 -4 -10 -10z"/>
<path d="M10633 7446 c-10 -11 -9 -15 1 -19 16 -7 26 1 26 20 0 17 -12 16 -27
-1z"/>
<path d="M10700 7421 c0 -11 5 -23 10 -26 6 -4 10 5 10 19 0 14 -4 26 -10 26
-5 0 -10 -9 -10 -19z"/>
<path d="M12880 5716 c0 -11 30 -39 36 -34 2 3 -5 13 -16 23 -11 10 -20 15
-20 11z"/>
<path d="M7885 5903 c-13 -60 -13 -62 1 -56 9 3 14 20 14 44 0 45 -7 51 -15
12z"/>
<path d="M1681 4134 c0 -11 3 -14 6 -6 3 7 2 16 -1 19 -3 4 -6 -2 -5 -13z"/>
<path d="M1532 3988 c-14 -14 -16 -28 -2 -28 5 0 14 9 20 20 12 22 1 27 -18 8z"/>
<path d="M1255 3670 c-3 -5 -2 -18 4 -27 7 -14 9 -12 8 10 -2 30 -3 31 -12 17z"/>
<path d="M1230 3629 c0 -5 5 -7 10 -4 6 3 10 8 10 11 0 2 -4 4 -10 4 -5 0 -10
-5 -10 -11z"/>
<path d="M1430 3290 c0 -5 7 -7 15 -4 8 4 15 8 15 10 0 2 -7 4 -15 4 -8 0 -15
-4 -15 -10z"/>
<path d="M9558 1513 c-21 -5 -24 -23 -4 -23 8 0 16 7 20 15 3 8 4 14 3 14 -1
-1 -10 -3 -19 -6z"/>
<path d="M9666 1195 c4 -8 8 -15 10 -15 2 0 4 7 4 15 0 8 -4 15 -10 15 -5 0
-7 -7 -4 -15z"/>
<path d="M13311 2994 c0 -11 3 -14 6 -6 3 7 2 16 -1 19 -3 4 -6 -2 -5 -13z"/>
<path d="M13115 2809 c-4 -6 -5 -12 -2 -15 2 -3 7 2 10 11 7 17 1 20 -8 4z"/>
<path d="M12835 2620 c-3 -5 -1 -10 4 -10 6 0 11 5 11 10 0 6 -2 10 -4 10 -3
0 -8 -4 -11 -10z"/>
<path d="M12723 2523 c-21 -8 -15 -22 7 -16 11 3 20 9 20 14 0 10 -8 10 -27 2z"/>
<path d="M12615 2506 c-18 -13 -18 -14 4 -21 12 -4 25 -4 28 -1 4 3 -2 6 -12
6 -14 0 -15 3 -5 15 16 19 10 19 -15 1z"/>
<path d="M13911 2664 c0 -11 3 -14 6 -6 3 7 2 16 -1 19 -3 4 -6 -2 -5 -13z"/>
<path d="M13880 2570 c0 -5 9 -10 20 -10 11 0 20 5 20 10 0 6 -9 10 -20 10
-11 0 -20 -4 -20 -10z"/>
<path d="M13886 2495 c-3 -8 -1 -15 4 -15 6 0 10 7 10 15 0 8 -2 15 -4 15 -2
0 -6 -7 -10 -15z"/>
<path d="M12151 2281 c-8 -6 -9 -11 -3 -15 6 -3 14 -1 17 5 9 14 2 20 -14 10z"/>
<path d="M11890 2170 c0 -6 7 -10 15 -10 8 0 15 2 15 4 0 2 -7 6 -15 10 -8 3
-15 1 -15 -4z"/>
<path d="M12518 1903 c7 -3 16 -2 19 1 4 3 -2 6 -13 5 -11 0 -14 -3 -6 -6z"/>
<path d="M12068 1723 c7 -3 16 -2 19 1 4 3 -2 6 -13 5 -11 0 -14 -3 -6 -6z"/>
<path d="M8333 813 c9 -2 23 -2 30 0 6 3 -1 5 -18 5 -16 0 -22 -2 -12 -5z"/>
<path d="M8420 790 c20 -13 33 -13 25 0 -3 6 -14 10 -23 10 -15 0 -15 -2 -2
-10z"/>
<path d="M8350 780 c0 -6 7 -10 15 -10 8 0 15 2 15 4 0 2 -7 6 -15 10 -8 3
-15 1 -15 -4z"/>
<path d="M8409 769 c-10 -6 -4 -9 19 -9 17 0 32 2 32 4 0 9 -39 13 -51 5z"/>
<path d="M8478 753 c7 -3 16 -2 19 1 4 3 -2 6 -13 5 -11 0 -14 -3 -6 -6z"/>
<path d="M10402 283 c1 -48 1 -48 5 -8 3 22 10 43 16 47 8 5 6 8 -5 8 -15 0
-18 -8 -16 -47z"/>
<path d="M2902 11454 c10 -10 20 -16 22 -13 3 3 -5 11 -17 18 -21 13 -21 12
-5 -5z"/>
<path d="M5770 11440 c-22 -5 22 -8 115 -9 154 -2 202 -9 335 -54 105 -34 149
-43 91 -16 -64 28 -155 58 -234 74 -70 15 -245 18 -307 5z"/>
<path d="M4973 11341 c-28 -4 -55 -10 -60 -15 -4 -5 9 -6 32 -3 22 4 52 7 68
7 15 0 27 5 27 10 0 6 -3 9 -7 9 -5 -1 -31 -5 -60 -8z"/>
<path d="M5093 11343 c9 -2 25 -2 35 0 9 3 1 5 -18 5 -19 0 -27 -2 -17 -5z"/>
<path d="M3040 11330 c0 -5 9 -10 21 -10 11 0 17 5 14 10 -3 6 -13 10 -21 10
-8 0 -14 -4 -14 -10z"/>
<path d="M6601 11203 c0 -5 46 -30 102 -57 56 -26 120 -61 142 -76 28 -20 59
-30 105 -35 79 -9 77 -1 -4 14 -33 6 -62 15 -65 20 -3 4 -53 32 -111 60 -58
29 -117 59 -132 67 -29 16 -38 17 -37 7z"/>
<path d="M1075 11190 c3 -5 8 -10 11 -10 2 0 4 5 4 10 0 6 -5 10 -11 10 -5 0
-7 -4 -4 -10z"/>
<path d="M1104 11178 c-4 -6 -3 -8 4 -4 5 3 12 1 14 -6 3 -8 6 -9 11 -1 4 6 0
13 -8 17 -8 3 -17 0 -21 -6z"/>
<path d="M9698 11002 c-36 -15 -69 -30 -72 -33 -7 -6 66 5 102 16 12 4 22 3
22 -1 0 -5 16 -10 36 -11 21 -1 42 -9 51 -20 8 -10 12 -12 8 -5 -3 6 -2 12 3
12 5 0 13 -8 18 -19 6 -13 15 -16 28 -12 19 7 19 8 -1 28 -12 12 -18 25 -15
29 4 3 1 5 -7 2 -8 -2 -25 6 -39 19 -32 29 -51 28 -134 -5z"/>
<path d="M3965 10970 c-8 -13 5 -13 25 0 13 8 13 10 -2 10 -9 0 -20 -4 -23
-10z"/>
<path d="M3878 10941 c-8 -10 -22 -21 -29 -24 -10 -3 -11 -8 -3 -16 14 -15 44
-4 38 14 -3 7 4 16 15 20 12 3 19 11 16 16 -9 14 -19 11 -37 -10z"/>
<path d="M4105 10940 c-3 -5 -1 -10 4 -10 6 0 11 5 11 10 0 6 -2 10 -4 10 -3
0 -8 -4 -11 -10z"/>
<path d="M4006 10891 c-11 -4 -15 -10 -9 -14 5 -3 19 0 29 8 20 15 11 18 -20
6z"/>
<path d="M3745 10880 c-3 -5 1 -10 10 -10 9 0 13 5 10 10 -3 6 -8 10 -10 10
-2 0 -7 -4 -10 -10z"/>
<path d="M3950 10850 c0 -5 7 -7 15 -4 8 4 15 8 15 10 0 2 -7 4 -15 4 -8 0
-15 -4 -15 -10z"/>
<path d="M7670 10657 c0 -2 24 -20 53 -39 72 -48 137 -104 164 -141 13 -17 23
-26 23 -19 0 20 -70 91 -134 137 -62 43 -106 69 -106 62z"/>
<path d="M12470 10620 c0 -5 5 -10 11 -10 5 0 7 5 4 10 -3 6 -8 10 -11 10 -2
0 -4 -4 -4 -10z"/>
<path d="M3253 10593 c-14 -5 -18 -23 -5 -23 5 0 17 7 28 15 14 11 15 14 4 14
-8 0 -21 -3 -27 -6z"/>
<path d="M411 10544 c0 -11 3 -14 6 -6 3 7 2 16 -1 19 -3 4 -6 -2 -5 -13z"/>
<path d="M3103 10495 c-36 -32 -17 -32 22 0 17 13 25 24 18 25 -7 0 -25 -11
-40 -25z"/>
<path d="M9009 10471 c-16 -16 -29 -39 -29 -50 0 -12 -5 -21 -12 -21 -6 0 -8
-3 -5 -6 12 -12 74 39 90 73 13 29 13 33 0 33 -8 0 -28 -13 -44 -29z"/>
<path d="M12690 10212 c0 -69 12 -102 37 -102 13 0 14 7 9 38 -3 20 -6 47 -6
58 0 12 -9 32 -20 45 l-19 24 -1 -63z"/>
<path d="M9269 10213 c-13 -16 -12 -17 4 -4 9 7 17 15 17 17 0 8 -8 3 -21 -13z"/>
<path d="M12986 10208 c3 -13 12 -30 19 -38 7 -8 10 -21 8 -27 -3 -7 1 -13 7
-13 10 0 10 -3 0 -15 -12 -15 -6 -35 11 -35 6 0 7 5 4 10 -3 6 1 10 9 10 18 0
31 40 21 69 -5 18 -62 61 -79 61 -4 0 -4 -10 0 -22z"/>
<path d="M9020 10069 c-131 -134 -169 -179 -149 -179 16 0 190 172 241 238 72
93 32 68 -92 -59z"/>
<path d="M13030 9998 c0 -7 4 -19 9 -27 11 -17 25 3 17 24 -7 18 -26 20 -26 3z"/>
<path d="M13310 9491 c12 -23 70 -67 70 -53 0 16 -41 62 -51 57 -5 -4 -9 -1
-9 4 0 6 -5 11 -10 11 -7 0 -7 -6 0 -19z"/>
<path d="M14865 9270 c10 -11 20 -20 23 -20 3 0 -3 9 -13 20 -10 11 -20 20
-23 20 -3 0 3 -9 13 -20z"/>
<path d="M14448 9253 c6 -2 18 -2 25 0 6 3 1 5 -13 5 -14 0 -19 -2 -12 -5z"/>
<path d="M14298 9243 c7 -3 16 -2 19 1 4 3 -2 6 -13 5 -11 0 -14 -3 -6 -6z"/>
<path d="M14976 9160 c26 -27 49 -50 52 -50 2 0 -15 23 -38 50 -23 28 -46 50
-52 50 -5 0 12 -22 38 -50z"/>
<path d="M15101 9128 c29 -35 57 -65 63 -67 6 -2 -16 26 -48 62 -74 85 -83 87
-15 5z"/>
<path d="M15050 9071 c0 -6 4 -13 10 -16 6 -3 7 1 4 9 -7 18 -14 21 -14 7z"/>
<path d="M14695 9060 c-174 -16 -416 -41 -535 -56 -134 -16 -127 -13 -350
-132 -103 -54 -270 -153 -270 -159 0 -2 33 15 73 37 174 98 363 194 405 206
25 8 65 14 89 14 23 0 43 4 43 8 0 9 89 17 155 14 35 -2 252 24 385 46 77 13
114 -4 188 -83 37 -39 74 -75 82 -79 8 -5 -30 37 -85 93 -55 55 -100 100 -100
100 0 -1 -36 -5 -80 -9z"/>
<path d="M15086 9001 c5 -5 67 -6 144 -2 l135 8 -144 1 c-86 1 -141 -2 -135
-7z"/>
<path d="M14855 8819 c-417 -17 -746 -46 -832 -75 -52 -17 -321 -150 -338
-166 -5 -6 50 20 123 56 73 37 156 76 184 87 116 45 479 76 1011 86 198 3 357
10 357 15 0 10 -210 8 -505 -3z"/>
<path d="M15159 8382 c-35 -23 -119 -98 -119 -106 0 -3 12 -1 27 5 15 5 63 13
107 16 75 6 79 5 71 -13 -10 -22 -19 -140 -35 -464 -12 -230 -20 -277 -42
-264 -6 4 -17 -1 -24 -11 -8 -11 -21 -16 -33 -12 -22 5 -38 -20 -22 -36 11
-11 141 46 141 61 0 4 -5 13 -12 20 -9 9 -9 47 1 164 7 84 16 235 20 335 6
141 12 187 24 207 16 23 15 26 -21 70 -20 25 -41 46 -47 46 -5 0 -22 -8 -36
-18z m81 -41 c9 -18 5 -20 -63 -23 -39 -2 -73 -3 -75 -2 -2 1 18 15 44 32 50
34 73 32 94 -7z"/>
<path d="M15130 8173 c0 -5 -25 -37 -56 -71 -31 -34 -53 -62 -49 -62 3 0 26
17 50 37 43 35 74 87 61 100 -3 3 -6 2 -6 -4z"/>
<path d="M14135 8160 c-16 -5 -56 -14 -87 -20 -32 -6 -58 -16 -58 -21 0 -5 7
-9 15 -9 8 0 15 5 15 10 0 6 10 10 23 10 40 0 137 22 137 31 0 10 -4 10 -45
-1z"/>
<path d="M13593 8126 c-55 -14 -103 -40 -103 -56 0 -15 21 -12 39 4 9 8 49 24
90 35 l74 21 44 -22 c24 -12 71 -44 104 -70 32 -26 59 -44 59 -39 0 11 -76 75
-135 114 -44 30 -87 33 -172 13z"/>
<path d="M14491 8128 c-12 -4 -20 -12 -17 -17 13 -21 -133 -371 -155 -371 -13
0 -23 24 -79 193 -29 87 -54 156 -56 154 -4 -3 83 -285 104 -337 9 -23 7 -25
-17 -27 -14 -1 -39 -3 -56 -5 -28 -3 -31 0 -52 62 -23 63 -71 190 -100 259 -8
18 -16 31 -19 29 -2 -3 13 -49 35 -104 21 -54 51 -137 66 -184 15 -47 33 -92
40 -100 18 -22 54 -118 64 -170 7 -38 9 -40 10 -14 1 26 -22 100 -53 175 -6
13 6 19 59 34 48 12 70 24 83 44 27 38 88 178 118 268 14 43 29 81 32 85 12
12 122 16 122 4 0 -8 2 -8 8 0 4 7 16 14 27 17 11 2 0 5 -25 6 -25 1 -61 3
-81 5 -19 1 -46 -1 -58 -6z"/>
<path d="M14598 8055 c-9 -22 -30 -72 -46 -111 -30 -70 -85 -193 -103 -226 -5
-10 -9 -23 -9 -29 0 -6 -9 -24 -21 -40 -11 -16 -21 -38 -22 -49 -1 -11 -5 -20
-9 -20 -4 0 -8 -6 -8 -13 0 -8 -8 -22 -19 -31 -10 -9 -26 -41 -36 -71 -9 -30
-21 -52 -26 -49 -5 3 -9 2 -8 -3 5 -19 -22 -64 -33 -57 -7 4 -10 4 -6 -1 8 -8
-74 -77 -106 -89 -10 -3 -16 -9 -13 -12 8 -9 85 34 125 71 52 47 149 242 313
625 27 63 48 122 46 130 -1 8 -10 -3 -19 -25z"/>
<path d="M13702 8030 c0 -19 2 -27 5 -17 2 9 2 25 0 35 -3 9 -5 1 -5 -18z"/>
<path d="M13713 7940 c0 -25 2 -35 4 -22 2 12 2 32 0 45 -2 12 -4 2 -4 -23z"/>
<path d="M13603 7849 c-61 -4 -119 -12 -130 -18 -10 -6 -13 -11 -5 -11 7 0 10
-4 7 -10 -3 -5 -1 -10 4 -10 6 0 11 3 11 8 0 4 45 8 101 9 75 2 104 7 116 18
8 9 14 17 12 18 -2 1 -54 -1 -116 -4z"/>
<path d="M13891 7804 c0 -11 3 -14 6 -6 3 7 2 16 -1 19 -3 4 -6 -2 -5 -13z"/>
<path d="M13710 7764 c0 -16 5 -36 10 -44 6 -10 7 -2 3 25 -7 49 -13 58 -13
19z"/>
<path d="M15040 7758 c0 -24 15 -33 55 -35 28 -1 33 0 18 5 -13 4 -32 15 -43
25 -24 20 -30 21 -30 5z"/>
<path d="M13891 7715 c0 -11 -4 -31 -7 -45 -5 -19 -4 -22 5 -14 7 6 11 26 8
45 -2 19 -5 25 -6 14z"/>
<path d="M13460 7629 c0 -9 7 -33 15 -53 9 -20 15 -42 14 -49 -5 -43 19 -48
81 -17 22 11 53 20 69 20 22 0 29 4 25 14 -4 10 -24 14 -75 14 -61 -1 -69 -3
-69 -20 0 -11 -4 -16 -10 -13 -5 3 -10 14 -10 24 0 22 -39 101 -40 80z"/>
<path d="M13830 7625 c-30 -8 -83 -19 -118 -26 -35 -6 -60 -15 -55 -20 4 -4
51 3 103 16 51 14 102 25 112 25 10 0 18 5 18 10 0 6 -1 10 -2 9 -2 0 -28 -7
-58 -14z"/>
<path d="M13720 7529 c59 -10 180 -11 180 -1 0 4 -51 7 -113 8 -82 1 -100 -1
-67 -7z"/>
<path d="M14204 7412 c-27 -20 -76 -51 -107 -67 -31 -17 -57 -34 -57 -39 0
-14 52 -106 60 -106 4 0 10 12 13 26 3 18 1 24 -9 20 -19 -7 -46 22 -42 46 2
12 22 31 48 45 44 24 150 102 150 109 0 7 -6 4 -56 -34z"/>
<path d="M13293 7172 c-10 -6 576 -6 742 1 39 2 -110 4 -330 5 -220 1 -405 -2
-412 -6z"/>
<path d="M14150 7168 c0 -5 100 -7 223 -6 223 2 197 6 -76 10 -81 2 -147 0
-147 -4z"/>
<path d="M14771 7150 c80 -5 213 -16 295 -25 246 -26 294 -29 294 -16 0 7 -19
11 -47 11 -27 0 -106 7 -178 15 -71 8 -215 16 -320 19 l-190 5 146 -9z"/>
<path d="M14775 6970 c-8 -13 9 -20 24 -11 10 6 9 10 -3 14 -8 3 -18 2 -21 -3z"/>
<path d="M15313 6872 c-9 -6 -9 -26 3 -87 8 -44 17 -97 21 -117 12 -76 23 -35
23 87 0 112 -2 125 -17 125 -10 0 -23 -4 -30 -8z"/>
<path d="M13740 6733 c133 -7 278 -7 273 0 -2 4 -77 6 -166 5 -89 -1 -137 -3
-107 -5z"/>
<path d="M15023 6716 c-71 -23 -138 -73 -236 -176 -83 -87 -95 -96 -116 -88
-17 6 -27 5 -33 -4 -6 -9 -8 -7 -6 7 2 13 -2 19 -11 17 -7 -1 -21 3 -30 10 -9
7 0 -6 19 -29 36 -42 55 -52 62 -31 3 9 6 9 12 0 4 -7 3 -12 -2 -12 -5 0 -8
-16 -6 -36 3 -41 24 -62 37 -38 11 20 -1 33 -13 14 -7 -11 -9 -9 -7 8 1 24 16
29 35 10 19 -19 15 22 -4 43 -15 17 -12 23 52 95 123 138 210 193 320 202 57
4 71 1 129 -27 35 -18 78 -49 96 -69 29 -34 30 -35 16 -7 -19 37 -61 77 -107
100 -45 23 -153 29 -207 11z"/>
<path d="M14285 6705 c-39 -14 -115 -83 -115 -105 0 -6 14 5 31 25 41 46 71
61 150 76 81 15 165 -1 210 -39 34 -28 104 -165 94 -182 -3 -6 -1 -10 4 -10
14 0 14 5 -3 61 -30 98 -82 159 -153 178 -53 15 -171 13 -218 -4z"/>
<path d="M14017 6649 c-8 -66 -9 -66 -46 -78 -21 -6 -52 -11 -70 -11 -21 0
-31 -5 -31 -16 0 -13 8 -14 48 -8 97 14 115 36 110 128 l-3 51 -8 -66z"/>
<path d="M13834 6602 c-10 -6 -35 -259 -33 -328 l1 -29 8 25 c4 14 8 55 9 91
1 36 4 100 7 142 l7 77 32 0 c54 0 125 12 125 21 0 11 -140 12 -156 1z"/>
<path d="M14245 6550 c3 -5 16 -10 29 -10 12 0 28 -6 35 -12 11 -11 13 -10 8
3 -4 12 1 15 21 12 24 -3 24 -2 7 6 -27 13 -108 14 -100 1z"/>
<path d="M15039 6536 c-47 -17 -75 -43 -94 -89 -23 -55 -18 -56 14 -5 47 74
114 100 177 68 l39 -20 -25 24 c-32 32 -66 39 -111 22z"/>
<path d="M14397 6529 c7 -7 15 -10 18 -7 3 3 -2 9 -12 12 -14 6 -15 5 -6 -5z"/>
<path d="M14182 6503 c-5 -10 -12 -36 -15 -58 -3 -22 -3 -32 -1 -23 3 10 12
15 22 12 13 -5 14 -4 3 4 -15 11 -6 36 10 27 5 -4 9 1 9 10 0 9 -4 14 -9 11
-5 -4 -7 3 -4 14 7 25 -3 26 -15 3z"/>
<path d="M14334 6481 c1 -26 6 -41 14 -41 16 0 16 41 -1 64 -11 16 -13 13 -13
-23z"/>
<path d="M14495 6500 c3 -5 8 -10 11 -10 2 0 4 5 4 10 0 6 -5 10 -11 10 -5 0
-7 -4 -4 -10z"/>
<path d="M13862 6470 c0 -19 2 -27 5 -17 2 9 2 25 0 35 -3 9 -5 1 -5 -18z"/>
<path d="M15053 6482 c-13 -4 -38 -22 -58 -40 -33 -32 -38 -52 -12 -52 9 0 8
3 -1 8 -9 7 -8 13 8 27 19 18 20 18 21 -1 2 -31 -2 -49 -14 -56 -17 -11 13
-29 35 -22 10 3 21 -3 27 -13 8 -14 10 -15 11 -3 0 12 2 13 9 1 10 -15 31 -7
31 13 0 7 10 18 23 25 l22 12 -24 -5 c-30 -6 -70 12 -51 24 8 5 9 10 2 14 -6
3 -14 -3 -17 -15 -5 -13 -2 -25 6 -30 7 -4 11 -10 9 -13 -3 -2 -16 4 -29 14
l-24 18 28 26 c15 14 31 23 36 20 5 -3 9 3 9 13 0 15 2 16 10 3 8 -12 9 -9 7
10 -4 27 -25 34 -64 22z m47 -6 c0 -3 -4 -8 -10 -11 -5 -3 -10 -1 -10 4 0 6 5
11 10 11 6 0 10 -2 10 -4z"/>
<path d="M15130 6459 c0 -5 5 -7 10 -4 6 3 10 8 10 11 0 2 -4 4 -10 4 -5 0
-10 -5 -10 -11z"/>
<path d="M13851 6364 c0 -11 3 -14 6 -6 3 7 2 16 -1 19 -3 4 -6 -2 -5 -13z"/>
<path d="M14492 6340 c0 -14 2 -19 5 -12 2 6 2 18 0 25 -3 6 -5 1 -5 -13z"/>
<path d="M14958 6353 c7 -3 16 -2 19 1 4 3 -2 6 -13 5 -11 0 -14 -3 -6 -6z"/>
<path d="M15000 6281 c0 -18 52 -51 81 -51 33 0 79 19 79 33 0 5 -7 4 -15 -3
-19 -15 -110 -4 -130 17 -8 8 -15 10 -15 4z"/>
<path d="M14140 6272 c0 -13 54 -20 218 -28 l132 -7 0 24 c0 18 -3 20 -9 10
-7 -11 -33 -12 -132 -7 -68 4 -143 9 -166 13 -26 3 -43 1 -43 -5z"/>
<path d="M14748 6243 c-53 -4 -55 -8 -32 -41 14 -20 23 -23 76 -21 l59 3 38
-63 c22 -36 38 -73 36 -86 -1 -17 4 -25 19 -29 28 -8 179 -7 309 1 l107 6 0
44 c0 28 -4 43 -12 43 -31 1 -263 -45 -266 -52 -4 -9 -57 -10 -98 -2 -29 5
-68 54 -134 167 -13 21 -29 36 -38 35 -10 -1 -38 -3 -64 -5z"/>
<path d="M13571 6109 c-1 -35 12 -39 130 -39 86 0 102 3 119 20 21 21 26 40
11 40 -5 0 -14 -6 -20 -14 -12 -15 -43 -22 -128 -32 -65 -7 -92 1 -103 29 -8
21 -9 21 -9 -4z"/>
<path d="M1475 5850 c46 -12 183 -12 165 0 -8 5 -55 9 -105 9 -63 -1 -81 -4
-60 -9z"/>
<path d="M1375 5750 c-13 -21 54 -70 94 -70 13 0 13 -2 3 -9 -8 -4 -14 -12
-13 -17 0 -5 -7 -8 -14 -8 -8 1 -12 -2 -9 -7 3 -5 18 -9 35 -9 16 0 29 -4 29
-10 0 -16 30 -12 36 5 4 8 11 15 16 15 6 0 8 -7 4 -15 -8 -21 56 -13 92 12 15
10 43 25 62 34 l35 15 -90 23 c-189 47 -269 59 -280 41z"/>
<path d="M13431 5348 c-41 -21 -77 -41 -80 -44 -15 -15 100 36 134 59 54 37
34 31 -54 -15z"/>
<path d="M15282 5023 c-2 -59 -5 -109 -7 -111 -2 -2 -35 8 -74 23 -39 14 -76
23 -82 19 -7 -4 -9 -3 -6 3 6 9 -45 23 -137 36 l-28 5 28 -25 c16 -14 45 -37
64 -52 19 -14 37 -29 40 -32 3 -3 12 -10 21 -15 30 -17 91 -75 85 -81 -3 -4
-20 -6 -37 -6 -24 0 -27 -2 -14 -10 9 -5 28 -6 43 -1 32 8 47 10 125 12 l57 2
0 170 0 170 -37 0 -38 0 -3 -107z"/>
<path d="M14281 5046 c11 -9 69 -14 69 -6 0 6 -16 10 -37 10 -20 0 -34 -2 -32
-4z"/>
<path d="M14783 4968 c-21 -15 -45 -31 -52 -35 -21 -10 -92 -86 -159 -170 -31
-40 -65 -73 -74 -73 -10 0 -18 -5 -18 -10 0 -6 12 -8 28 -5 24 5 25 4 5 -4
-17 -8 -93 -5 -93 3 0 1 11 24 24 52 13 27 20 53 16 58 -13 13 -25 0 -40 -43
-8 -25 -20 -41 -29 -41 -25 -1 -54 -27 -48 -44 10 -24 59 -27 152 -8 65 14 84
21 69 26 -21 6 -19 10 25 58 104 115 142 148 205 182 75 41 121 68 129 76 5 4
-16 7 -47 6 -44 -1 -64 -7 -93 -28z"/>
<path d="M14701 4772 c-23 -21 -41 -43 -41 -49 0 -7 -9 -15 -21 -18 -36 -12
-6 -24 43 -18 29 3 45 10 41 16 -4 7 0 8 11 4 25 -10 147 14 143 27 -2 6 -13
10 -23 8 -10 -2 -45 -3 -76 -3 -31 1 -60 -4 -63 -9 -8 -13 -35 -13 -35 0 0 12
48 35 83 39 7 1 5 6 -6 12 -9 6 -15 14 -12 20 12 19 -4 8 -44 -29z"/>
<path d="M14878 4788 c6 -6 18 -8 28 -6 14 3 12 5 -9 10 -19 3 -25 2 -19 -4z"/>
<path d="M15005 4791 c16 -7 17 -9 5 -13 -8 -3 -6 -4 5 -2 11 2 26 -1 33 -5
12 -7 -21 -8 -78 -2 -13 1 -13 2 0 11 23 15 6 12 -26 -5 l-29 -15 35 -1 c34
-1 34 -2 -7 -8 -60 -10 -66 -22 -7 -15 84 11 180 32 154 33 -14 1 -36 8 -50
16 -14 8 -32 14 -40 14 -9 0 -8 -3 5 -8z"/>
<path d="M15078 4783 c6 -2 18 -2 25 0 6 3 1 5 -13 5 -14 0 -19 -2 -12 -5z"/>
<path d="M14598 4673 c7 -3 16 -2 19 1 4 3 -2 6 -13 5 -11 0 -14 -3 -6 -6z"/>
<path d="M13198 4499 c4 -4 23 -9 43 -13 28 -5 36 -3 36 9 0 11 -11 14 -43 12
-24 -1 -40 -5 -36 -8z"/>
<path d="M13328 4503 c6 -2 18 -2 25 0 6 3 1 5 -13 5 -14 0 -19 -2 -12 -5z"/>
<path d="M14110 4470 c-13 -8 -13 -10 2 -10 9 0 20 5 23 10 8 13 -5 13 -25 0z"/>
<path d="M14885 4430 c3 -5 11 -10 16 -10 6 0 7 5 4 10 -3 6 -11 10 -16 10 -6
0 -7 -4 -4 -10z"/>
<path d="M15137 4259 c12 -12 25 -20 28 -17 3 3 -7 13 -22 23 l-28 17 22 -23z"/>
<path d="M14493 4183 c-14 -5 -18 -23 -5 -23 5 0 17 7 28 15 14 11 15 14 4 14
-8 0 -21 -3 -27 -6z"/>
<path d="M15190 4160 c-11 -7 -12 -10 -2 -10 9 0 11 -8 8 -22 -3 -13 -3 -17 0
-10 3 6 11 12 17 12 7 0 18 9 25 20 10 17 10 20 -3 20 -8 0 -15 -4 -15 -10 0
-5 -5 -10 -11 -10 -5 0 -7 5 -4 10 8 12 4 12 -15 0z"/>
<path d="M15084 4148 c8 -4 25 -4 38 1 20 8 18 9 -15 8 -24 -1 -32 -4 -23 -9z"/>
<path d="M14806 4137 c3 -10 9 -15 12 -12 3 3 0 11 -7 18 -10 9 -11 8 -5 -6z"/>
<path d="M14816 4107 c-16 -12 -16 -13 3 -13 11 0 17 5 14 10 -4 5 1 7 11 3
10 -4 15 -3 11 3 -8 13 -18 13 -39 -3z"/>
<path d="M15290 4106 c0 -2 7 -7 16 -10 8 -3 12 -2 9 4 -6 10 -25 14 -25 6z"/>
<path d="M15328 4048 c5 -5 16 -8 23 -6 8 3 3 7 -10 11 -17 4 -21 3 -13 -5z"/>
<path d="M15305 4020 c3 -5 16 -10 28 -9 21 0 21 1 2 9 -28 12 -37 12 -30 0z"/>
<path d="M15320 3919 c0 -5 5 -7 10 -4 6 3 10 8 10 11 0 2 -4 4 -10 4 -5 0
-10 -5 -10 -11z"/>
<path d="M14532 3338 c5 -32 28 -35 28 -4 0 17 -5 26 -16 26 -10 0 -14 -7 -12
-22z"/>
<path d="M15020 2750 c0 -5 5 -10 10 -10 6 0 10 5 10 10 0 6 -4 10 -10 10 -5
0 -10 -4 -10 -10z"/>
<path d="M14827 2729 c7 -7 15 -10 18 -7 3 3 -2 9 -12 12 -14 6 -15 5 -6 -5z"/>
<path d="M14756 2666 c10 -8 21 -12 24 -10 5 6 -21 24 -34 24 -6 0 -1 -6 10
-14z"/>
<path d="M13585 2240 c-55 -7 -113 -28 -82 -29 13 -1 17 -10 17 -35 0 -19 8
-48 18 -65 17 -30 32 -40 32 -21 0 5 13 23 29 39 17 18 32 46 36 70 5 30 12
41 28 44 38 7 -21 5 -78 -3z"/>
<path d="M13440 2220 c0 -6 7 -10 15 -10 8 0 15 2 15 4 0 2 -7 6 -15 10 -8 3
-15 1 -15 -4z"/>
<path d="M14000 2144 c0 -8 5 -12 10 -9 6 3 10 10 10 16 0 5 -4 9 -10 9 -5 0
-10 -7 -10 -16z"/>
<path d="M12370 1620 c0 -5 7 -10 15 -10 8 0 15 5 15 10 0 6 -7 10 -15 10 -8
0 -15 -4 -15 -10z"/>
<path d="M12280 1610 l-25 -8 27 -1 c15 -1 30 4 33 9 7 11 0 11 -35 0z"/>
<path d="M12160 1570 c0 -5 7 -10 16 -10 8 0 12 5 9 10 -3 6 -10 10 -16 10 -5
0 -9 -4 -9 -10z"/>
<path d="M12081 1534 c0 -11 3 -14 6 -6 3 7 2 16 -1 19 -3 4 -6 -2 -5 -13z"/>
<path d="M15000 890 c0 -5 5 -10 10 -10 6 0 10 5 10 10 0 6 -4 10 -10 10 -5 0
-10 -4 -10 -10z"/>
<path d="M14371 574 c0 -11 3 -14 6 -6 3 7 2 16 -1 19 -3 4 -6 -2 -5 -13z"/>
<path d="M10835 310 c3 -5 10 -10 16 -10 5 0 9 5 9 10 0 6 -7 10 -16 10 -8 0
-12 -4 -9 -10z"/>
<path d="M14800 40 l-85 -6 82 -2 c46 -1 85 2 88 8 3 6 5 9 3 8 -2 -1 -41 -5
-88 -8z"/>
<path d="M11448 23 c7 -3 16 -2 19 1 4 3 -2 6 -13 5 -11 0 -14 -3 -6 -6z"/>
<path d="M9478 3 c7 -3 16 -2 19 1 4 3 -2 6 -13 5 -11 0 -14 -3 -6 -6z"/>
</g>
</svg>
